<?xml version="1.0" encoding="UTF-8" standalone="no"?>
<!-- Created with Inkscape (http://www.inkscape.org/) -->

<svg
   width="2.6230674in"
   height="2.620225in"
   viewBox="0 0 30.859616 30.826175"
   version="1.1"
   id="svg5"
   inkscape:version="1.2 (dc2aeda, 2022-05-15)"
   xml:space="preserve"
   sodipodi:docname="poke-type-icons.svg"
   xmlns:inkscape="http://www.inkscape.org/namespaces/inkscape"
   xmlns:sodipodi="http://sodipodi.sourceforge.net/DTD/sodipodi-0.dtd"
   xmlns="http://www.w3.org/2000/svg"
   xmlns:svg="http://www.w3.org/2000/svg"><sodipodi:namedview
     id="namedview7"
     pagecolor="#505050"
     bordercolor="#eeeeee"
     borderopacity="1"
     inkscape:showpageshadow="false"
     inkscape:pageopacity="0"
     inkscape:pagecheckerboard="false"
     inkscape:deskcolor="#505050"
     inkscape:document-units="in"
     showgrid="true"
     inkscape:lockguides="false"
     inkscape:zoom="0.2489684"
     inkscape:cx="1206.9805"
     inkscape:cy="-929.83687"
     inkscape:window-width="1440"
     inkscape:window-height="900"
     inkscape:window-x="0"
     inkscape:window-y="0"
     inkscape:window-maximized="0"
     inkscape:current-layer="layer1" /><defs
     id="defs2" /><g
     inkscape:label="Layer 1"
     inkscape:groupmode="layer"
     id="layer1"
     transform="translate(48.139682,72.179513)"><path
       id="path938"
       style="fill:#000000;stroke-width:0.122549"
       d="m -34.693535,-41.415299 c -1.35986,-0.160011 -2.01256,-0.268149 -2.26716,-0.375612 -0.1348,-0.0569 -0.57598,-0.201255 -0.98039,-0.320788 -0.86865,-0.256751 -2.616,-1.121268 -3.30883,-1.637075 -0.2696,-0.200721 -0.60049,-0.414832 -0.73529,-0.475801 -0.31917,-0.144354 -3.12014,-2.945325 -3.26449,-3.264494 -0.061,-0.134804 -0.27402,-0.465686 -0.47343,-0.735294 -0.82636,-1.117224 -1.54383,-2.768725 -2.07679,-4.780399 -0.34444,-1.300142 -0.356,-1.434532 -0.33196,-3.859312 0.0258,-2.60427 0.12329,-3.24856 0.788,-5.20833 0.28379,-0.8367 1.17406,-2.58947 1.61837,-3.18627 0.20073,-0.26961 0.41484,-0.60049 0.47581,-0.7353 0.14435,-0.31917 2.94532,-3.12014 3.26449,-3.26449 0.1348,-0.061 0.46569,-0.27508 0.73529,-0.4758 1.28077,-0.95353 3.10406,-1.64508 5.94363,-2.25436 1.06835,-0.22923 3.24037,-0.25593 4.77941,-0.0588 0.57292,0.0734 1.15196,0.14395 1.28677,0.15677 0.95549,0.0909 3.99753,1.39759 5.02451,2.15823 0.26961,0.19968 0.60049,0.41294 0.73529,0.47391 0.31917,0.14436 3.12014,2.94533 3.2645,3.2645 0.061,0.1348 0.27401,0.46568 0.47342,0.73529 0.90268,1.22041 1.74921,3.31149 2.20772,5.45343 0.31064,1.45118 0.34719,5.454 0.0533,5.84173 -0.0935,0.12345 -0.17185,0.406646 -0.17399,0.629331 -0.009,0.962986 -1.2438,3.993225 -2.08176,5.109825 -0.20233,0.269608 -0.41776,0.60049 -0.47872,0.735294 -0.14436,0.319169 -2.94533,3.12014 -3.2645,3.264494 -0.1348,0.06097 -0.46568,0.275254 -0.73529,0.476187 -1.09663,0.817299 -3.22802,1.686772 -5.39216,2.199657 -0.74732,0.177111 -3.99128,0.26222 -5.08578,0.133432 z m -1.32142,-7.412718 c 0.9563,-0.972815 1.35012,-1.574897 1.96986,-3.011542 0.8556,-1.983415 0.68228,-5.281545 -0.37914,-7.214585 -0.0507,-0.0924 -0.42885,-0.2899 -0.84025,-0.43887 -0.8771,-0.31759 -2.14261,-1.13958 -2.70724,-1.75845 -0.21906,-0.2401 -0.39828,-0.47323 -0.39828,-0.51808 0,-0.0449 -0.10077,-0.19771 -0.22392,-0.33971 l -0.22391,-0.25817 -0.69521,0.70254 c -0.38236,0.38639 -0.6952,0.76987 -0.6952,0.85216 0,0.0823 -0.045,0.14964 -0.10006,0.14964 -0.13861,0 -0.93601,1.74272 -1.20558,2.6348 -0.34882,1.15434 -0.29481,3.75775 0.1017,4.90196 0.55257,1.594564 1.82125,3.637375 2.49983,4.025204 0.13613,0.0778 0.42383,0.301954 0.63933,0.49811 0.40818,0.37154 1.00356,0.783163 1.15512,0.79861 0.0483,0.0049 0.54467,-0.455701 1.10295,-1.023617 z m 8.90776,0.174599 c 1.39817,-1.121245 2.41013,-2.584402 3.00883,-4.350357 0.53787,-1.586529 0.49541,-3.984359 -0.10091,-5.699079 -0.36228,-1.04175 -1.22962,-2.46054 -1.90542,-3.1169 l -0.49695,-0.48264 -0.3082,0.28955 c -0.16951,0.15924 -0.3082,0.33738 -0.3082,0.39585 0,0.13867 -0.2884,0.42337 -1.04167,1.0283 -0.80645,0.64765 -1.343,0.94608 -2.05927,1.14538 -0.66446,0.18488 -0.81605,0.40373 -1.31971,1.90523 -0.24394,0.72721 -0.2885,1.10977 -0.29262,2.51225 -0.004,1.419133 0.036,1.776409 0.28286,2.512255 0.55371,1.650823 1.11298,2.588804 2.1982,3.686748 l 1.01533,1.027246 0.39653,-0.212522 c 0.21808,-0.116887 0.63713,-0.405477 0.9312,-0.641311 z m -4.09726,-12.467946 c 0.82979,-0.26174 1.72406,-0.85545 2.43597,-1.61728 0.562,-0.60139 0.58312,-0.64805 0.39002,-0.86142 -0.19471,-0.21515 -1.36236,-0.71441 -1.85464,-0.79301 -0.4507,-0.072 -0.18795,-0.58185 0.8002,-1.55289 0.94537,-0.929 0.96131,-0.95453 0.72783,-1.16583 -0.23175,-0.20973 -0.277,-0.17785 -1.55309,1.09428 l -1.31438,1.31031 h -1.14989 -1.14989 l -1.3058,-1.28677 c -0.71819,-0.70772 -1.35845,-1.28676 -1.42279,-1.28676 -0.0644,0 -0.19167,0.11956 -0.28292,0.26568 -0.15537,0.24879 -0.10269,0.32784 0.82836,1.24279 0.54686,0.53741 0.99429,1.01771 0.99429,1.06735 0,0.15512 -0.2769,0.30833 -1.18593,0.65618 -0.48376,0.18512 -0.93947,0.40876 -1.01269,0.49699 -0.10219,0.12313 0.0595,0.35277 0.69573,0.988 1.57536,1.57293 3.39403,2.06237 5.35962,1.44238 z" /></g></svg>
