<?xml version="1.0" encoding="UTF-8" standalone="no"?>
<svg
   fill="none"
   stroke="#000000"
   strokeLinecap="round"
   strokeLinejoin="round"
   strokeWidth="2"
   viewBox="0 0 20.961733 10.961335"
   version="1.1"
   id="svg217"
   sodipodi:docname="checks.svg"
   width="20.961733"
   height="10.961335"
   inkscape:version="1.2 (dc2aeda, 2022-05-15)"
   xmlns:inkscape="http://www.inkscape.org/namespaces/inkscape"
   xmlns:sodipodi="http://sodipodi.sourceforge.net/DTD/sodipodi-0.dtd"
   xmlns="http://www.w3.org/2000/svg"
   xmlns:svg="http://www.w3.org/2000/svg">
  <defs
     id="defs221" />
  <sodipodi:namedview
     id="namedview219"
     pagecolor="#505050"
     bordercolor="#eeeeee"
     borderopacity="1"
     inkscape:showpageshadow="0"
     inkscape:pageopacity="0"
     inkscape:pagecheckerboard="0"
     inkscape:deskcolor="#505050"
     showgrid="false"
     inkscape:zoom="20.595826"
     inkscape:cx="12.065552"
     inkscape:cy="4.4912013"
     inkscape:window-width="1440"
     inkscape:window-height="900"
     inkscape:window-x="0"
     inkscape:window-y="0"
     inkscape:window-maximized="0"
     inkscape:current-layer="svg217" />
  <path
     style="color:#000000;fill:#000000;stroke:none;stroke-linecap:round;stroke-linejoin:round;-inkscape-stroke:none"
     d="M 15.480866,1.636261e-7 A 0.47999999,0.47999999 0 0 0 15.141022,0.14062516 l -5,4.99999984 a 0.47999999,0.47999999 0 0 0 0,0.679688 0.47999999,0.47999999 0 0 0 0.679688,0 l 5,-5.0000003 a 0.47999999,0.47999999 0 0 0 0,-0.67968754 A 0.47999999,0.47999999 0 0 0 15.480866,1.636261e-7 Z m 5,0 A 0.47999999,0.47999999 0 0 0 20.141022,0.14062516 L 10.480866,9.800781 5.8207095,5.140625 a 0.47999999,0.47999999 0 0 0 -0.6796875,0 0.47999999,0.47999999 0 0 0 0,0.679688 l 5,5 a 0.48004799,0.48004799 0 0 0 0.679688,0 l 10,-10.0000003 a 0.47999999,0.47999999 0 0 0 0,-0.67968754 A 0.47999999,0.47999999 0 0 0 20.480866,1.636261e-7 Z M 0.48086585,5 a 0.47999999,0.47999999 0 0 0 -0.3398438,0.140625 0.47999999,0.47999999 0 0 0 0,0.679688 l 4.99999995,5 a 0.47999999,0.47999999 0 0 0 0.6796875,0 0.47999999,0.47999999 0 0 0 0,-0.679688 l -4.9999999,-5 A 0.47999999,0.47999999 0 0 0 0.48086585,5 Z"
     id="path215" />
</svg>
