<?xml version="1.0" encoding="UTF-8" standalone="no"?>
<!-- Created with Inkscape (http://www.inkscape.org/) -->

<svg
   width="2.617497in"
   height="2.6178021in"
   viewBox="0 0 30.794082 30.797671"
   version="1.1"
   id="svg5"
   inkscape:version="1.2 (dc2aeda, 2022-05-15)"
   xml:space="preserve"
   sodipodi:docname="poke-type-icons.svg"
   xmlns:inkscape="http://www.inkscape.org/namespaces/inkscape"
   xmlns:sodipodi="http://sodipodi.sourceforge.net/DTD/sodipodi-0.dtd"
   xmlns="http://www.w3.org/2000/svg"
   xmlns:svg="http://www.w3.org/2000/svg"><sodipodi:namedview
     id="namedview7"
     pagecolor="#505050"
     bordercolor="#eeeeee"
     borderopacity="1"
     inkscape:showpageshadow="false"
     inkscape:pageopacity="0"
     inkscape:pagecheckerboard="false"
     inkscape:deskcolor="#505050"
     inkscape:document-units="in"
     showgrid="true"
     inkscape:lockguides="false"
     inkscape:zoom="0.2489684"
     inkscape:cx="1206.9805"
     inkscape:cy="-929.83687"
     inkscape:window-width="1440"
     inkscape:window-height="900"
     inkscape:window-x="0"
     inkscape:window-y="0"
     inkscape:window-maximized="0"
     inkscape:current-layer="layer1" /><defs
     id="defs2" /><g
     inkscape:label="Layer 1"
     inkscape:groupmode="layer"
     id="layer1"
     transform="translate(-144.70982,71.815164)"><path
       id="path898"
       style="fill:#000000;stroke-width:0.122549"
       d="m 158.2488,-41.076444 c -1.51345,-0.14735 -3.7323,-0.81703 -5.14706,-1.55344 -0.50551,-0.26314 -1.08456,-0.56388 -1.28676,-0.6683 -0.45593,-0.23548 -1.63531,-1.13181 -1.94914,-1.48137 -0.1284,-0.14302 -0.29535,-0.26003 -0.371,-0.26003 -0.13,0 -0.80486,-0.68975 -0.80486,-0.82262 0,-0.0342 -0.27574,-0.36382 -0.61275,-0.73257 -0.33701,-0.36874 -0.61274,-0.74282 -0.61274,-0.83128 0,-0.0885 -0.0763,-0.1901 -0.16948,-0.22587 -0.24578,-0.0943 -1.47602,-2.6555 -1.89447,-3.94403 -0.59575,-1.83447 -0.69258,-2.52174 -0.6907,-4.90196 0.002,-2.15195 0.0562,-2.61074 0.50267,-4.22794 0.57973,-2.10016 2.23482,-5.12735 3.27458,-5.98927 0.11159,-0.0925 0.20289,-0.22083 0.20289,-0.28516 0,-0.15212 0.6813,-0.83341 0.8334,-0.83341 0.0643,0 0.19266,-0.0913 0.28518,-0.2029 0.78717,-0.94958 3.37583,-2.41933 5.43779,-3.08738 1.8305,-0.59306 2.52817,-0.69268 4.84069,-0.69117 2.11794,0.001 3.07574,0.11655 4.28921,0.51577 0.30331,0.0998 0.60662,0.19097 0.67402,0.20264 0.58374,0.1011 3.73446,1.64128 3.82149,1.86808 0.0358,0.0932 0.13741,0.16947 0.22587,0.16947 0.0885,0 0.46253,0.27573 0.83127,0.61274 0.36875,0.33701 0.69841,0.61275 0.73257,0.61275 0.13287,0 0.82263,0.67486 0.82263,0.80486 0,0.0756 0.11701,0.2426 0.26002,0.37099 0.34956,0.31383 1.2459,1.49322 1.48137,1.94915 0.10443,0.2022 0.40673,0.78125 0.67178,1.28676 1.52701,2.91241 1.96455,6.33303 1.31674,10.29412 -0.0386,0.2359 -0.11524,0.53921 -0.17038,0.67402 -0.0551,0.1348 -0.17125,0.49326 -0.25805,0.79657 -0.0868,0.3033 -0.20338,0.60386 -0.25907,0.66789 -0.0557,0.064 -0.10124,0.21481 -0.10124,0.33508 0,0.27106 -1.30761,2.80688 -1.54355,2.99337 -0.0947,0.0748 -0.17213,0.18999 -0.17213,0.2559 0,0.0659 -0.27375,0.41828 -0.60832,0.78305 -0.33459,0.36478 -0.61032,0.70036 -0.61275,0.74572 -0.006,0.10744 -0.73362,0.8353 -0.84105,0.84106 -0.0454,0.002 -0.38095,0.27816 -0.74573,0.61274 -0.36476,0.33457 -0.71714,0.60832 -0.78305,0.60832 -0.0659,0 -0.18105,0.0775 -0.25589,0.17214 -0.1865,0.23594 -2.72232,1.54355 -2.99337,1.54355 -0.12027,0 -0.27106,0.0456 -0.33509,0.10124 -0.064,0.0557 -0.36458,0.17226 -0.66789,0.25907 -0.30331,0.0868 -0.66177,0.20292 -0.79657,0.25805 -0.86295,0.3529 -4.06299,0.57476 -5.82108,0.4036 z m 3.43137,-5.85762 c 1.51101,-0.32209 1.88772,-0.44728 2.8459,-0.94579 1.20441,-0.62659 2.21165,-1.4265 3.02124,-2.39931 0.34538,-0.41502 0.62796,-0.77928 0.62796,-0.80945 0,-0.0302 0.18807,-0.38758 0.41792,-0.79424 0.99946,-1.76822 1.39157,-4.07409 1.03488,-6.08565 -0.28341,-1.59816 -1.20087,-3.69138 -1.96543,-4.4841 -0.0916,-0.095 -0.28225,-0.32261 -0.42358,-0.50577 -0.7163,-0.92823 -2.80667,-2.25508 -4.18403,-2.65578 -1.60156,-0.46593 -3.74049,-0.74109 -3.88928,-0.50034 -0.0327,0.0528 -0.34884,0.13427 -0.70262,0.18097 -2.79869,0.3694 -5.5922,2.38398 -6.9176,4.98876 -1.50564,2.95896 -1.5092,6.03495 -0.0104,8.97587 1.59977,3.13906 4.87179,5.1554 8.42939,5.19451 0.50551,0.005 1.27757,-0.0663 1.71568,-0.15968 z m -2.6348,-1.41717 c -1.51918,-0.25666 -1.59064,-0.28477 -1.63191,-0.642 -0.0324,-0.28004 0.008,-0.33576 0.2451,-0.33676 0.36049,-0.002 1.45621,-0.50829 1.67755,-0.77587 0.0925,-0.11183 0.23197,-0.20332 0.30991,-0.20332 0.17994,0 1.66651,-1.49268 1.66651,-1.67335 0,-0.0742 0.0872,-0.20727 0.19382,-0.29574 0.30738,-0.25509 0.86264,-1.44884 1.10822,-2.38258 0.50243,-1.91021 0.10962,-4.16472 -1.02469,-5.88118 -0.95996,-1.45263 -2.99884,-3.00245 -3.94989,-3.00245 -0.1925,0 -0.24903,-0.0799 -0.24903,-0.35171 0,-0.32128 0.0451,-0.35766 0.52083,-0.42054 0.28646,-0.0379 0.87517,-0.13051 1.30824,-0.20589 0.45348,-0.0789 1.07714,-0.0993 1.47059,-0.048 0.37576,0.049 0.79348,0.0962 0.92828,0.10484 0.70874,0.0455 2.70002,0.86325 3.00911,1.23566 0.0802,0.0967 0.20981,0.17581 0.28791,0.17581 0.24582,0 1.52014,1.38014 2.08488,2.25801 0.29798,0.46319 0.64208,1.19242 0.76468,1.62051 0.1226,0.42808 0.25925,0.77834 0.30368,0.77834 0.18871,0 0.18367,3.76179 -0.005,3.92157 -0.0398,0.0337 -0.20133,0.44378 -0.35883,0.91131 -0.72697,2.1578 -2.77998,4.20528 -4.79941,4.78649 -0.37071,0.10669 -0.78431,0.24269 -0.91912,0.30221 -0.1348,0.0595 -0.32781,0.10559 -0.42892,0.10238 -0.1011,-0.003 -0.56985,0.0238 -1.04166,0.06 -0.47182,0.0362 -1.13358,0.0192 -1.47059,-0.0377 z" /></g></svg>
