<?xml version="1.0" encoding="UTF-8" standalone="no"?>
<!-- Created with Inkscape (http://www.inkscape.org/) -->

<svg
   width="2.6151178in"
   height="2.6157975in"
   viewBox="0 0 30.766092 30.774087"
   version="1.1"
   id="svg5"
   inkscape:version="1.2 (dc2aeda, 2022-05-15)"
   xml:space="preserve"
   sodipodi:docname="poke-type-icons.svg"
   xmlns:inkscape="http://www.inkscape.org/namespaces/inkscape"
   xmlns:sodipodi="http://sodipodi.sourceforge.net/DTD/sodipodi-0.dtd"
   xmlns="http://www.w3.org/2000/svg"
   xmlns:svg="http://www.w3.org/2000/svg"><sodipodi:namedview
     id="namedview7"
     pagecolor="#505050"
     bordercolor="#eeeeee"
     borderopacity="1"
     inkscape:showpageshadow="false"
     inkscape:pageopacity="0"
     inkscape:pagecheckerboard="false"
     inkscape:deskcolor="#505050"
     inkscape:document-units="in"
     showgrid="true"
     inkscape:lockguides="false"
     inkscape:zoom="0.2489684"
     inkscape:cx="1206.9805"
     inkscape:cy="-929.83687"
     inkscape:window-width="1440"
     inkscape:window-height="900"
     inkscape:window-x="0"
     inkscape:window-y="0"
     inkscape:window-maximized="0"
     inkscape:current-layer="layer1" /><defs
     id="defs2" /><g
     inkscape:label="Layer 1"
     inkscape:groupmode="layer"
     id="layer1"
     transform="translate(0.98931555,74.562242)"><path
       id="path926"
       style="fill:#000000;stroke-width:0.122549"
       d="m 12.129714,-43.864156 c -0.40441,-0.0596 -0.98346,-0.16943 -1.28676,-0.244 -0.30331,-0.0746 -0.7038,-0.16614 -0.8899796,-0.20346 -0.18619,-0.0373 -0.36866,-0.11665 -0.40553,-0.17629 -0.0369,-0.0596 -0.15415,-0.10841 -0.26067,-0.10841 -0.25181,0 -3.22324,-1.46773 -3.22324,-1.5921 0,-0.0523 -0.0965,-0.12886 -0.21446,-0.17025 -0.86746,-0.30435 -3.2506,-2.71982 -4.39362,-4.45324 -0.49863996,-0.75619 -0.90661996,-1.41937 -0.90661996,-1.4737 0,-0.0543 -0.16372,-0.4283 -0.3638,-0.831 -0.2001,-0.40269 -0.36554,-0.82541 -0.36765,-0.9394 -0.002,-0.11397 -0.0526,-0.23737 -0.11227,-0.27422 -0.0596,-0.0369 -0.13762,-0.21934 -0.1733,-0.40553 -0.0357,-0.18618 -0.16413,-0.75211 -0.28542,-1.25762 -0.31428004,-1.30984 -0.31428004,-5.06271 0,-6.37255 0.12129,-0.50552 0.24972,-1.07145 0.28542,-1.25763 0.0357,-0.18618 0.11367,-0.36866 0.1733,-0.40552 0.0596,-0.0368 0.10842,-0.15016 0.10842,-0.25179 0,-0.31536 1.05536,-2.38373 1.77421996,-3.47722 0.9905,-1.50672 2.98189,-3.4941 4.24736,-4.23882 0.12471,-0.0734 0.32362,-0.21592 0.44204,-0.31675 0.26279,-0.22375 2.76531,-1.44933 2.9594,-1.44933 0.0765,0 0.23489,-0.0498 0.35194,-0.11061 0.11703,-0.0608 0.4471596,-0.17112 0.7336196,-0.24509 0.28646,-0.074 0.75521,-0.20343 1.04167,-0.28768 0.83466,-0.24549 5.20168,-0.18826 6.28064,0.0823 0.47181,0.11831 1.01017,0.24417 1.19634,0.27967 0.18619,0.0355 0.36867,0.11335 0.40553,0.17298 0.0369,0.0596 0.15166,0.10842 0.25511,0.10842 0.26457,0 2.92402,1.31229 3.10751,1.53338 0.0832,0.10027 0.20476,0.1823 0.2701,0.1823 0.20785,0 0.82727,0.51581 2.20751,1.83824 2.30768,2.211 3.77548,4.8178 4.51972,8.02696 0.11303,0.48735 0.17053,1.49977 0.17053,3.00245 0,1.50268 -0.0575,2.5151 -0.17053,3.00245 -0.74424,3.20915 -2.21204,5.81596 -4.51972,8.02696 -1.38024,1.32243 -1.99966,1.83824 -2.20751,1.83824 -0.0653,0 -0.18616,0.0812 -0.2685,0.18038 -0.20816,0.25082 -2.48303,1.35263 -3.43976,1.66603 -0.43507,0.14251 -1.1495,0.34099 -1.58761,0.44105 -0.94457,0.21575 -4.39068,0.31709 -5.45343,0.16039 z m 0.39553,-6.6371 c -0.4245,-0.56881 -0.85767,-1.38274 -1.19459,-2.24457 -0.24225,-0.61972 -0.28872,-0.96644 -0.29566,-2.20589 -0.007,-1.28322 0.0296,-1.56426 0.28843,-2.20588 0.16315,-0.40441 0.40355,-0.89012 0.53421,-1.07936 0.13065,-0.18923 0.21774,-0.36271 0.19354,-0.3855 -0.10474,-0.0986 -2.4733496,0.19786 -3.3611696,0.42074 -0.53463,0.13422 -1.38566,0.45297 -1.89117,0.70835 -0.87395,0.44148 -0.9182,0.48401 -0.90044,0.86521 0.0234,0.50235 0.45599,1.58459 0.99973,2.50112 0.42427,0.71518 2.04136,2.41521 2.59679,2.73003 1.1043496,0.62593 2.3775596,1.16343 2.7558796,1.16343 0.16136,0 0.32973,0.0588 0.37415,0.1307 0.0444,0.0719 0.10841,0.10309 0.14216,0.0693 0.0338,-0.0338 -0.0751,-0.24423 -0.24186,-0.46771 z m 6.31171,-0.50384 c 3.18076,-1.58333 5.11683,-5.33523 4.63875,-8.98939 -0.0851,-0.65045 -0.19978,-1.29846 -0.25485,-1.44003 -0.74624,-1.91836 -1.14121,-2.57835 -2.19428,-3.66648 -0.91634,-0.94686 -1.47083,-1.35327 -2.59687,-1.90336 -0.83615,-0.40847 -2.49351,-0.87128 -3.13124,-0.8744 -0.43342,-0.002 -0.60262,-0.2573 -0.40967,-0.61785 0.18468,-0.34507 0.26563,-1.56918 0.14971,-2.26393 l -0.10223,-0.61275 -0.22416,0.42893 c -0.53942,1.03217 -2.44771,2.84767 -4.06022,3.86281 -1.6408096,1.03296 -1.9896396,1.29641 -2.7795296,2.09919 -1.45914,1.48296 -1.9713,2.41835 -2.53978,4.63849 -0.17129,0.66893 -0.16356,0.70226 0.12692,0.5468 0.61163,-0.32733 3.5191,-0.85318 4.7173196,-0.85318 0.822,0 2.07059,-0.3285 2.89294,-0.76113 0.83381,-0.43866 1.49201,-1.07563 1.94429,-1.88158 0.18368,-0.3273 0.39245,-0.61458 0.46394,-0.63841 0.0715,-0.0238 0.22405,0.13941 0.339,0.36277 0.30238,0.58753 1.15555,1.65249 1.45123,1.81147 0.41136,0.22118 1.14788,1.44185 1.31172,2.17399 0.31457,1.40566 -0.14473,3.30136 -1.04402,4.30907 -0.66777,0.74828 -2.11615,1.30364 -3.75676,1.44047 -0.53648,0.0447 -0.97543,0.0964 -0.97543,0.11484 0,0.0184 0.10763,0.28458 0.23918,0.59147 0.36534,0.8523 1.62955,2.03779 2.52239,2.36534 1.29271,0.47424 1.92489,0.42726 3.27165,-0.24315 z M 7.9658944,-61.993686 c -0.26982,-0.43656 1.57692,-2.62958 2.3339596,-2.7716 0.60125,-0.1128 0.70131,0.007 0.63856,0.76346 -0.0428,0.51678 -0.13274,0.74388 -0.41214,1.04126 -0.6544296,0.69651 -2.3351996,1.33123 -2.5603796,0.96688 z" /></g></svg>
