<?xml version="1.0" encoding="UTF-8" standalone="no"?>
<!-- Created with Inkscape (http://www.inkscape.org/) -->

<svg
   width="2.6227634in"
   height="2.6214893in"
   viewBox="0 0 30.85604 30.841049"
   version="1.1"
   id="svg5"
   inkscape:version="1.2 (dc2aeda, 2022-05-15)"
   xml:space="preserve"
   sodipodi:docname="poke-type-icons.svg"
   xmlns:inkscape="http://www.inkscape.org/namespaces/inkscape"
   xmlns:sodipodi="http://sodipodi.sourceforge.net/DTD/sodipodi-0.dtd"
   xmlns="http://www.w3.org/2000/svg"
   xmlns:svg="http://www.w3.org/2000/svg"><sodipodi:namedview
     id="namedview7"
     pagecolor="#505050"
     bordercolor="#eeeeee"
     borderopacity="1"
     inkscape:showpageshadow="false"
     inkscape:pageopacity="0"
     inkscape:pagecheckerboard="false"
     inkscape:deskcolor="#505050"
     inkscape:document-units="in"
     showgrid="true"
     inkscape:lockguides="false"
     inkscape:zoom="0.2489684"
     inkscape:cx="1206.9805"
     inkscape:cy="-929.83687"
     inkscape:window-width="1440"
     inkscape:window-height="900"
     inkscape:window-x="0"
     inkscape:window-y="0"
     inkscape:window-maximized="0"
     inkscape:current-layer="layer1" /><defs
     id="defs2" /><g
     inkscape:label="Layer 1"
     inkscape:groupmode="layer"
     id="layer1"
     transform="translate(17.626884,226.48536)"><path
       id="path890"
       style="fill:#000000;stroke-width:0.122549"
       d="m -3.8540494,-195.69738 c -0.87716,-0.13024 -2.30625,-0.43646 -2.49292,-0.53417 -0.11174,-0.0585 -0.53404,-0.20165 -0.93845,-0.31813 -0.90348,-0.26022 -2.39932,-0.99762 -3.5487496,-1.74946 -1.11057,-0.72641 -3.40407,-3.01991 -4.13048,-4.13047 -2.17684,-3.32807 -3.05833,-7.15393 -2.49766,-10.84042 0.4812,-3.16393 1.88974,-6.04292 4.08524,-8.35002 1.88882,-1.98482 3.9177696,-3.26664 6.4980196,-4.10519 4.51113,-1.46608 9.193101,-0.79931 13.313951,1.89608 1.11056,0.7264 3.40406,3.01992 4.1304704,4.13048 1.32643,2.02789 2.15809,4.16572 2.49814,6.42151 0.28833,1.91272 0.1959,4.044 -0.24336,5.61039 -0.0903,0.32201 -0.25396,0.91636 -0.36369,1.32077 -0.52953,1.95169 -2.22605,4.66592 -3.9507804,6.32081 -1.67765,1.6097 -3.88281,2.97388 -5.61953,3.4764 -0.40442,0.117 -0.87317,0.27026 -1.04167,0.34056 -0.89657003,0.37402 -4.465341,0.69394 -5.698531,0.51086 z m 1.96785,-5.22584 c 0.11487,-0.21905 0.27057,-0.52193 0.34599,-0.67306 0.0754,-0.15113 0.1785,-0.27521 0.22905,-0.27574 0.0506,0 0.0919,-0.06 0.0919,-0.13205 0,-0.0721 0.154051,-0.36163 0.34232097,-0.64339 0.18828,-0.28175 0.40847,-0.65014 0.48931,-0.81865 0.1574,-0.32809 0.41609,-0.75765 0.51661,-0.85784 0.0338,-0.0337 0.13963,-0.21293 0.23517,-0.39829 0.0955,-0.18535 0.21952,-0.33701 0.27554,-0.33701 0.056,0 0.10184,-0.0896 0.10184,-0.19899 0,-0.16694 0.10368,-0.18814 0.64338003,-0.13156 0.58492,0.0613 2.01887,0.41846 2.58778,0.64449 0.20077,0.0798 0.21201,0.0596 0.0919,-0.16474 -0.0752,-0.14061 -0.1368,-0.42144 -0.1368,-0.6241 0,-0.20266 -0.0551,-0.40256 -0.12255,-0.44421 -0.0674,-0.0417 -0.12255,-0.2071 -0.12255,-0.36765 0,-0.16055 -0.0552,-0.32599 -0.12255,-0.36765 -0.0674,-0.0417 -0.12022,-0.36201 -0.11736,-0.71188 0.005,-0.59183 0.0353,-0.65537 0.43742,-0.91189 0.23772,-0.15166 0.48356,-0.27574 0.54628,-0.27574 0.0627,0 0.11405,-0.043 0.11405,-0.0957 0,-0.0526 0.15166,-0.1609 0.33701,-0.24065 0.18536,-0.0797 0.44731,-0.21589 0.58211,-0.3026 1.03362,-0.66476 1.30707,-0.83165 1.36275,-0.83165 0.035,0 0.2942,-0.15615 0.57595,-0.34701 0.28176,-0.19086 0.60879,-0.38214 0.72674,-0.42509 0.28879,-0.10511 0.27166,-0.33883 -0.0306,-0.41789 -0.1348,-0.0353 -0.24509,-0.10637 -0.24509,-0.15805 0,-0.0517 -0.0965,-0.12561 -0.21447,-0.1643 -0.11795,-0.0387 -0.43504,-0.21009 -0.70465,-0.3809 -0.26961,-0.17081 -0.73836,-0.43511 -1.04167,-0.58734 -0.30331,-0.15222 -0.65888,-0.37375 -0.79016,-0.49228 -0.13129,-0.11853 -0.55868,-0.3666 -0.94975,-0.55128 -0.68317,-0.32258 -0.71107,-0.35408 -0.71107,-0.80252 0,-0.53491 0.22749,-1.56096 0.38431,-1.73339 0.0582,-0.064 0.10589,-0.28738 0.10589,-0.49632 0,-0.20895 0.0689,-0.45037 0.15318,-0.5365 0.12402,-0.12678 0.0599,-0.14028 -0.33701,-0.0709 -0.26961,0.0471 -0.54258,0.13413 -0.60661,0.19336 -0.064,0.0592 -0.29515,0.10768 -0.51361,0.10768 -0.21844,0 -0.43126,0.0551 -0.47291,0.12255 -0.0417,0.0674 -0.4051,0.12255 -0.80765,0.12255 -0.58924003,0 -0.74527003,-0.0418 -0.80046003,-0.21446 -0.13107,-0.41016 -0.35398,-0.82865 -0.56714,-1.06477 -0.11795,-0.13067 -0.21446,-0.28342 -0.21446,-0.33945 0,-0.056 -0.1499,-0.33515 -0.3331,-0.62027 -0.18321,-0.28512 -0.46676997,-0.76656 -0.63014097,-1.06987 -0.68854,-1.27836 -1.24264,-1.86688 -1.24264,-1.31982 0,0.075 -0.0779,0.22337 -0.17312,0.32978 -0.0952,0.10641 -0.33181,0.49678 -0.52578,0.86749 -0.19398,0.37071 -0.50211,0.9073 -0.68474,1.19242 -0.18263,0.28512 -0.33205,0.55651 -0.33205,0.60309 0,0.0466 -0.0904,0.18456 -0.20082,0.3066 -0.11044,0.12205 -0.3176,0.45727 -0.46033,0.74495 -0.23277,0.46912 -0.30998,0.52716 -0.74895,0.56303 -0.26918,0.022 -0.69621,-0.0194 -0.94897,-0.0919 -0.25276,-0.0725 -0.69393,-0.19279 -0.98039,-0.26722 -0.28646,-0.0744 -0.64491,-0.18353 -0.79657,-0.24247 -0.27599,-0.10725 -0.39557,0.0442 -0.15318,0.19396 0.0674,0.0417 0.12254,0.26225 0.12254,0.4902 0,0.22795 0.0491,0.44477 0.10901,0.48183 0.1367,0.0845 0.27059,0.80161 0.29853,1.59901 0.0211,0.60288 0.0151,0.61342 -0.50165,0.87149 -0.28769,0.14368 -0.62291,0.3516 -0.74495,0.46205 -0.12205,0.11045 -0.26471,0.20081 -0.31703,0.20081 -0.0523,0 -0.32371,0.15338 -0.6030996,0.34083 -0.27937,0.18745 -0.71242,0.43709 -0.96231,0.55475 -0.24991,0.11766 -0.48761,0.26774 -0.52828,0.33352 -0.0406,0.0658 -0.31872,0.23111 -0.61794,0.36742 -0.61286,0.27919 -0.67975,0.44129 -0.24957,0.60484 0.16195,0.0616 0.32973,0.16902 0.37285,0.23879 0.0431,0.0697 0.28284,0.22309 0.53274,0.34075 0.24989,0.11766 0.68294,0.36729 0.96232,0.55475 0.27938,0.18745 0.56215,0.34082 0.6283796,0.34082 0.0662,0 0.19138,0.0855 0.27812,0.19004 0.0867,0.10452 0.53467,0.36566 0.9954,0.58032 l 0.83768,0.39027 v 0.69922 c 0,0.38457 -0.0552,0.7333 -0.12255,0.77496 -0.0674,0.0416 -0.12255,0.25447 -0.12255,0.47292 0,0.21845 -0.0485,0.44957 -0.10768,0.5136 -0.0592,0.064 -0.14641,0.33367 -0.19374,0.59921 -0.07,0.39285 -0.0557,0.4585 0.077,0.35241 0.0897,-0.0717 0.32854,-0.1615 0.53075,-0.19951 0.2022,-0.038 0.61581,-0.13053 0.91912,-0.20557 0.3033,-0.075 0.82784,-0.16689 1.16563,-0.20412 l 0.61418,-0.0677 0.23417,0.53076 c 0.1288,0.29192 0.33495,0.63894 0.45814,0.77116 0.12317,0.13221 0.22395,0.28751 0.22395,0.34509 0,0.0576 0.22059,0.4442 0.4902,0.85911 0.26961,0.41491 0.4902,0.82615 0.4902,0.91385 0,0.0877 0.0487,0.15946 0.10816,0.15946 0.0595,0 0.25657,0.30331 0.43794,0.67402 0.18137,0.37071 0.37681,0.67402 0.43432,0.67402 0.0575,0 0.19855,-0.17923 0.31341,-0.39829 z m -0.7736,-5.99324 c -0.0839,-0.0839 -0.15258,-0.19187 -0.15258,-0.23987 0,-0.12828 -0.98787,-1.84752 -1.21486,-2.11429 -0.10695,-0.12568 -0.30475,-0.27577 -0.43956,-0.33354 -0.1348,-0.0578 -0.52083,-0.27108 -0.85784,-0.47404 -0.33701,-0.20297 -0.72929,-0.42089 -0.87173,-0.48427 -0.31286,-0.1392 -0.46641,-0.62917 -0.2582,-0.82393 0.0822,-0.0769 0.45285,-0.29943 0.82356,-0.49442 1.40363,-0.7383 1.66235,-0.96588 2.23167,-1.96309 0.3008,-0.52689 0.58225,-1.05574 0.62544,-1.17522 0.0432,-0.11949 0.16261,-0.24951 0.26539,-0.28896 0.23809,-0.0914 0.79907,0.0459 0.79907,0.19559 0,0.0625 0.2068,0.45331 0.45956,0.86845 0.25275097,0.41514 0.53232097,0.88858 0.62127097,1.05208 0.17177,0.31575 0.72505,0.70018 1.92162003,1.3352 0.67553,0.3585 0.73529,0.42371 0.73529,0.80227 0,0.289 -0.0735,0.4497 -0.24609,0.53821 -2.13577003,1.09497 -2.30054003,1.24655 -3.201111,2.94479 -0.3216,0.60643 -0.45112,0.74163 -0.73912,0.77146 -0.19206,0.0199 -0.41786,-0.0325 -0.50178,-0.11642 z" /></g></svg>
