<?xml version="1.0" encoding="UTF-8" standalone="no"?>
<svg
   viewBox="0 0 30.856 30.841"
   version="1.1"
   id="svg243"
   sodipodi:docname="fairy.svg"
   inkscape:version="1.2 (dc2aeda, 2022-05-15)"
   xmlns:inkscape="http://www.inkscape.org/namespaces/inkscape"
   xmlns:sodipodi="http://sodipodi.sourceforge.net/DTD/sodipodi-0.dtd"
   xmlns="http://www.w3.org/2000/svg"
   xmlns:svg="http://www.w3.org/2000/svg">
  <defs
     id="defs247" />
  <sodipodi:namedview
     id="namedview245"
     pagecolor="#505050"
     bordercolor="#eeeeee"
     borderopacity="1"
     inkscape:showpageshadow="0"
     inkscape:pageopacity="0"
     inkscape:pagecheckerboard="0"
     inkscape:deskcolor="#505050"
     showgrid="false"
     inkscape:zoom="6.2312631"
     inkscape:cx="18.615808"
     inkscape:cy="23.510482"
     inkscape:window-width="1440"
     inkscape:window-height="900"
     inkscape:window-x="0"
     inkscape:window-y="0"
     inkscape:window-maximized="0"
     inkscape:current-layer="svg243" />
  <path
     id="path402"
     style="fill:#000000;fill-opacity:1;stroke-width:0.179881;stroke-linecap:round;stroke-linejoin:round;stroke-miterlimit:500"
     d="M 15.427734 0.06640625 A 15.354123 15.354123 0 0 0 0.07421875 15.419922 A 15.354123 15.354123 0 0 0 15.427734 30.775391 A 15.354123 15.354123 0 0 0 30.78125 15.419922 A 15.354123 15.354123 0 0 0 15.427734 0.06640625 z M 15.427734 3.8671875 C 15.427734 3.8671875 16.771253 7.3745955 18.337891 9.7988281 C 20.226845 9.3954335 22.023438 8.8261719 22.023438 8.8261719 C 22.023438 8.8261719 21.454153 10.621496 21.050781 12.509766 C 23.475015 14.076402 26.982422 15.419922 26.982422 15.419922 C 26.982422 15.419922 23.475015 16.763442 21.050781 18.330078 C 21.454177 20.219032 22.023438 22.015625 22.023438 22.015625 C 22.023438 22.015625 20.226845 21.446363 18.337891 21.042969 C 16.771253 23.467201 15.427734 26.974609 15.427734 26.974609 C 15.427734 26.974609 14.084216 23.467201 12.517578 21.042969 C 10.629308 21.446339 8.8339844 22.015625 8.8339844 22.015625 C 8.8339844 22.015625 9.403245 20.219032 9.8066406 18.330078 C 7.3824 16.763379 3.8730469 15.419922 3.8730469 15.419922 C 3.8730469 15.419922 7.3824 14.076465 9.8066406 12.509766 C 9.403269 10.621496 8.8339844 8.8261719 8.8339844 8.8261719 C 8.8339844 8.8261719 10.629309 9.3954565 12.517578 9.7988281 C 14.084216 7.3745955 15.427734 3.8671875 15.427734 3.8671875 z M 15.427734 10.191406 C 15.427734 10.191406 14.484003 12.660528 13.576172 13.568359 C 12.668341 14.47619 10.199219 15.419922 10.199219 15.419922 C 10.199219 15.419922 12.668341 16.365606 13.576172 17.273438 C 14.484003 18.181269 15.427734 20.650391 15.427734 20.650391 C 15.427734 20.650391 16.37342 18.181269 17.28125 17.273438 C 18.189081 16.365606 20.658203 15.419922 20.658203 15.419922 C 20.658203 15.419922 18.189081 14.47619 17.28125 13.568359 C 16.37342 12.660528 15.427734 10.191406 15.427734 10.191406 z " />
</svg>
