<svg xmlns="http://www.w3.org/2000/svg" viewBox="0 0 30.856 30.841"><path d="M13.773 30.788c-.877-.13-2.306-.436-2.493-.534-.112-.059-.534-.202-.939-.318-.903-.26-2.399-.998-3.548-1.75-1.11-.726-3.404-3.02-4.13-4.13-2.178-3.328-3.06-7.154-2.498-10.84a15.4 15.4 0 0 1 4.085-8.35C6.139 2.88 8.168 1.598 10.748.76c4.511-1.466 9.193-.8 13.314 1.896 1.11.727 3.404 3.02 4.13 4.13 1.327 2.029 2.158 4.166 2.498 6.422.289 1.913.196 4.044-.243 5.61-.09.323-.254.917-.364 1.321-.53 1.952-2.226 4.666-3.95 6.321-1.678 1.61-3.883 2.974-5.62 3.477-.404.117-.873.27-1.042.34-.896.374-4.465.694-5.698.511m1.968-5.226c.115-.219.27-.522.346-.673s.178-.275.229-.276c.05 0 .092-.06.092-.132s.154-.361.342-.643.408-.65.49-.819c.157-.328.415-.757.516-.858.034-.033.14-.213.235-.398.096-.185.22-.337.276-.337s.101-.09.101-.199c0-.167.104-.188.644-.131.585.06 2.019.418 2.588.644.2.08.212.06.091-.165a1.6 1.6 0 0 1-.136-.624c0-.202-.055-.402-.123-.444-.067-.042-.122-.207-.122-.368 0-.16-.056-.326-.123-.367-.067-.042-.12-.362-.117-.712.005-.592.035-.656.437-.912.238-.152.484-.276.546-.276s.114-.043.114-.096c0-.052.152-.16.337-.24s.448-.216.583-.303c1.033-.665 1.307-.831 1.362-.831.035 0 .294-.157.576-.347.282-.191.609-.383.727-.426.289-.105.272-.338-.03-.417-.135-.036-.246-.107-.246-.158s-.096-.126-.214-.165c-.118-.038-.435-.21-.705-.38-.27-.171-.738-.436-1.042-.588-.303-.152-.658-.374-.79-.492-.131-.119-.558-.367-.95-.552-.683-.322-.71-.354-.71-.802 0-.535.227-1.561.384-1.733.058-.064.106-.288.106-.497s.069-.45.153-.536c.124-.127.06-.14-.337-.071-.27.047-.543.134-.607.193-.064.06-.295.108-.513.108s-.432.055-.473.122c-.042.068-.405.123-.808.123-.59 0-.745-.042-.8-.215-.131-.41-.354-.828-.567-1.064-.118-.13-.215-.284-.215-.34s-.15-.335-.333-.62a20 20 0 0 1-.63-1.07c-.689-1.278-1.243-1.867-1.243-1.32 0 .075-.078.224-.173.33s-.332.497-.526.868c-.194.37-.502.907-.684 1.192s-.333.557-.333.603c0 .047-.09.185-.2.307s-.318.457-.46.745c-.233.469-.31.527-.75.563a3.2 3.2 0 0 1-.949-.092 49 49 0 0 0-.98-.267 9 9 0 0 1-.797-.243c-.276-.107-.395.044-.153.194.068.042.123.262.123.49s.049.445.109.482c.137.085.27.802.298 1.6.021.602.015.613-.501.87-.288.144-.623.352-.745.463-.122.11-.265.2-.317.2-.053 0-.324.154-.603.341a9 9 0 0 1-.963.555c-.25.118-.487.268-.528.334-.04.065-.319.23-.618.367-.613.28-.68.441-.25.605.162.061.33.169.373.239s.283.223.533.34.683.368.962.555c.28.188.563.34.629.34s.191.086.278.19.535.367.995.581l.838.39v.7c0 .384-.055.733-.123.775-.067.041-.122.254-.122.473s-.049.45-.108.513c-.059.064-.146.334-.194.6-.07.392-.055.458.077.352.09-.072.329-.162.531-.2s.616-.13.92-.205c.303-.075.827-.167 1.165-.204l.614-.068.234.53c.13.293.335.64.458.772.124.132.224.287.224.345s.221.444.49.86c.27.414.49.825.49.913s.05.16.109.16c.06 0 .257.303.438.673s.377.674.434.674c.058 0 .199-.179.314-.398m-.774-5.993c-.084-.084-.152-.192-.152-.24 0-.128-.988-1.847-1.215-2.114a1.4 1.4 0 0 0-.44-.334c-.135-.058-.52-.27-.858-.474s-.729-.42-.871-.484c-.313-.14-.467-.63-.259-.824.083-.077.453-.3.824-.494 1.404-.739 1.662-.966 2.232-1.964.3-.526.582-1.055.625-1.175a.54.54 0 0 1 .265-.289c.238-.091.8.046.8.196 0 .062.206.453.459.868s.532.889.621 1.052c.172.316.725.7 1.922 1.336.675.358.735.423.735.802 0 .289-.073.45-.246.538-2.136 1.095-2.3 1.247-3.201 2.945-.322.606-.451.741-.74.771-.191.02-.417-.032-.5-.116z"/></svg>