<?xml version="1.0" encoding="UTF-8" standalone="no"?>
<!-- Created with Inkscape (http://www.inkscape.org/) -->

<svg
   width="2.6205378in"
   height="2.6188569in"
   viewBox="0 0 30.829856 30.81008"
   version="1.1"
   id="svg5"
   inkscape:version="1.2 (dc2aeda, 2022-05-15)"
   xml:space="preserve"
   sodipodi:docname="poke-type-icons.svg"
   xmlns:inkscape="http://www.inkscape.org/namespaces/inkscape"
   xmlns:sodipodi="http://sodipodi.sourceforge.net/DTD/sodipodi-0.dtd"
   xmlns="http://www.w3.org/2000/svg"
   xmlns:svg="http://www.w3.org/2000/svg"><sodipodi:namedview
     id="namedview7"
     pagecolor="#505050"
     bordercolor="#eeeeee"
     borderopacity="1"
     inkscape:showpageshadow="false"
     inkscape:pageopacity="0"
     inkscape:pagecheckerboard="false"
     inkscape:deskcolor="#505050"
     inkscape:document-units="in"
     showgrid="true"
     inkscape:lockguides="false"
     inkscape:zoom="0.2489684"
     inkscape:cx="1206.9805"
     inkscape:cy="-929.83687"
     inkscape:window-width="1440"
     inkscape:window-height="900"
     inkscape:window-x="0"
     inkscape:window-y="0"
     inkscape:window-maximized="0"
     inkscape:current-layer="layer1" /><defs
     id="defs2" /><g
     inkscape:label="Layer 1"
     inkscape:groupmode="layer"
     id="layer1"
     transform="translate(-53.860923,35.89481)"><path
       id="path984"
       style="fill:#000000;stroke-width:0.122549"
       d="m 67.019791,-5.1484922 c -0.40442,-0.0558 -0.98346,-0.16511 -1.28677,-0.24293 -0.30331,-0.0778 -0.7038,-0.17204 -0.88998,-0.20936 -0.18618,-0.0373 -0.36866,-0.11666 -0.40552,-0.17629 -0.0369,-0.0596 -0.17237,-0.10842 -0.30114,-0.10842 -0.12878,0 -0.43051,-0.11029 -0.67052,-0.2451 -0.24,-0.1348 -0.51742,-0.24509 -0.61647,-0.24509 -0.099,0 -0.18009,-0.0551 -0.18009,-0.12255 0,-0.0674 -0.0717,-0.12255 -0.1594,-0.12255 -0.22545,0 -0.8189,-0.28823 -0.82004,-0.39829 -4.9e-4,-0.0506 -0.0586,-0.0919 -0.129039,-0.0919 -0.25331,0 -1.98445,-1.25737 -2.83224,-2.05713 -0.79336,-0.74842 -2.30928,-2.5000498 -2.30928,-2.6683498 0,-0.0391 -0.15407,-0.30157 -0.34237,-0.58332 -0.18831,-0.28175 -0.52498,-0.89831 -0.74817,-1.37012 -0.22319,-0.47181 -0.45516,-0.9536 -0.51548,-1.07064 -0.0603,-0.11704 -0.10967,-0.32059 -0.10967,-0.45233 0,-0.13174 -0.0551,-0.27361 -0.12255,-0.31526 -0.0674,-0.0417 -0.12255,-0.2071 -0.12255,-0.36765 0,-0.16055 -0.0493,-0.32239 -0.1096,-0.35965 -0.20615,-0.12741 -0.48799,-2.50309 -0.48799,-4.11339 0,-1.6103 0.28184,-3.98598 0.48799,-4.11339 0.0603,-0.0373 0.1096,-0.1991 0.1096,-0.35965 0,-0.16055 0.0551,-0.32599 0.12255,-0.36765 0.0674,-0.0417 0.12255,-0.18352 0.12255,-0.31527 0,-0.13174 0.0494,-0.33528 0.10967,-0.45232 0.0603,-0.11704 0.29229,-0.59883 0.51548,-1.07064 0.22319,-0.47182 0.55986,-1.08837 0.74817,-1.37012 0.1883,-0.28175 0.34237,-0.54425 0.34237,-0.58332 0,-0.1683 1.51592,-1.91994 2.30928,-2.66836 0.84779,-0.79975 2.57893,-2.05712 2.83224,-2.05712 0.0704,0 0.128509,-0.0414 0.129039,-0.0919 10e-4,-0.11005 0.59459,-0.39828 0.82004,-0.39828 0.0877,0 0.1594,-0.0551 0.1594,-0.12255 0,-0.0674 0.081,-0.12255 0.18009,-0.12255 0.0991,0 0.37647,-0.11029 0.61647,-0.2451 0.24001,-0.1348 0.54174,-0.24509 0.67052,-0.24509 0.12877,0 0.26822,-0.0551 0.30988,-0.12255 0.0417,-0.0674 0.20709,-0.12255 0.36764,-0.12255 0.16055,0 0.32239,-0.0493 0.35965,-0.10961 0.12741,-0.20615 2.50309,-0.48798 4.11339,-0.48798 1.61031,0 3.98599,0.28183 4.1134,0.48798 0.0373,0.0603 0.19909,0.10961 0.35964,0.10961 0.16055,0 0.32599,0.0551 0.36765,0.12255 0.0417,0.0674 0.17757,0.12255 0.30202,0.12255 0.12446,0 0.4383,0.10377 0.69743,0.23061 0.25912,0.12683 0.74687,0.36121 1.08388,0.52083 0.33701,0.15962 0.63113,0.33158 0.6536,0.38213 0.0225,0.0506 0.0939,0.0919 0.15872,0.0919 0.24461,0 1.99033,1.27255 2.82202,2.05712 0.79337,0.74842 2.30929,2.50006 2.30929,2.66836 0,0.0391 0.15407,0.30157 0.34237,0.58332 0.1883,0.28175 0.52498,0.8983 0.74817,1.37012 0.22319,0.47181 0.45515,0.9536 0.51547,1.07064 0.0603,0.11704 0.10968,0.32058 0.10968,0.45232 0,0.13175 0.0551,0.27362 0.12255,0.31527 0.0674,0.0417 0.12254,0.2071 0.12254,0.36765 0,0.16055 0.0493,0.32239 0.10961,0.35965 0.11481,0.071 0.16243,0.32204 0.38497,2.03006 0.15115,1.16004 0.0771,4.5628 -0.11276,5.18341 -0.0661,0.21591 -0.18437,0.64073 -0.26291,0.94404 -0.0785,0.30331 -0.19257,0.64723 -0.2534,0.76427 -0.0608,0.11703 -0.1106,0.29701 -0.1106,0.39994 0,0.10294 -0.0494,0.28291 -0.10968,0.39995 -0.0603,0.11704 -0.29208,0.59883 -0.51502,1.07064 -0.66377,1.40472 -1.80217,2.98885 -3.04634,4.2390998 -1.0535,1.05866 -2.85717,2.43982 -3.18617,2.43982 -0.0704,0 -0.12852,0.0414 -0.12904,0.0919 -10e-4,0.11006 -0.59459,0.39829 -0.82005,0.39829 -0.0877,0 -0.15939,0.0552 -0.15939,0.12255 0,0.0674 -0.081,0.12255 -0.1801,0.12255 -0.0991,0 -0.37646,0.11029 -0.61647,0.24509 -0.24001,0.13481 -0.51817,0.2451 -0.61813,0.2451 -0.1,0 -0.27752,0.0498 -0.39456,0.11061 -0.11704,0.0608 -0.46096,0.17452 -0.76427,0.25264 -0.30331,0.0781 -0.71691,0.19607 -0.91912,0.26211 -0.48568,0.15861 -4.45587,0.24081 -5.39215,0.11164 z m -5.32227,-13.0531698 0.004,-4.90196 -0.474799,-0.0366 c -0.4618,-0.0356 -0.47934,-0.0222 -0.64101,0.49019 -0.0914,0.28976 -0.20212,0.58197 -0.246,0.64938 -0.0439,0.0674 -0.25941,0.5913 -0.47897,1.16421 -0.21955,0.57292 -0.5046,1.27544 -0.63344,1.56117 -0.34286,0.76037 -0.29911,1.52823 0.14845,2.6055 0.62594,1.5066 0.91659,2.25552 1.27497,3.28529 0.0367,0.10539 0.22488,0.14736 0.54952,0.12254 l 0.493729,-0.0377 z m 16.16785,-2.15087 v -7.11409 l -0.42498,-0.17757 c -0.58933,-0.24624 -1.32716,-0.2253 -1.6637,0.0472 -0.26222,0.21234 -0.27616,0.30228 -0.2517,1.62378 0.0142,0.76944 -0.0119,1.99182 -0.0581,2.71639 l -0.084,1.3174 h -0.71953 -0.71953 v -2.62123 c 0,-2.33583 -0.0239,-2.65071 -0.21929,-2.89204 -0.2716,-0.33541 -1.15658,-0.45979 -1.78823,-0.25133 l -0.44345,0.14635 v 2.80913 2.80912 h -0.72219 c -0.54548,0 -0.74038,-0.0474 -0.79657,-0.19385 -0.0409,-0.10661 -0.0751,-1.25091 -0.076,-2.54289 -9.9e-4,-1.29197 -0.0324,-2.46346 -0.07,-2.6033 -0.13847,-0.51567 -1.61961,-0.73859 -2.13493,-0.32131 -0.26674,0.21599 -0.27247,0.2754 -0.25264,2.62007 0.0112,1.31948 -0.016,2.54356 -0.0603,2.72017 -0.0755,0.30099 -0.12583,0.32111 -0.8026,0.32111 h -0.72201 v -2.64037 -2.64038 l -0.30684,-0.30684 c -0.25975,-0.25975 -0.40521,-0.30235 -0.9479,-0.27758 -0.47682,0.0217 -0.71218,0.10037 -0.91865,0.30683 l -0.27759,0.27759 v 6.61382 6.61381 l 0.31727,0.37705 0.31726,0.37705 h 6.91313 6.91312 z" /></g></svg>
