<svg xmlns="http://www.w3.org/2000/svg" viewBox="0 0 30.767 30.782"><path d="M13.479 30.748c-.76-.078-2.062-.4-3.282-.81-.765-.256-2.723-1.234-3.039-1.516-.106-.095-.23-.173-.274-.173-.198 0-1.584-1.178-2.55-2.166C2.198 23.895.747 21.169.17 18.261c-.226-1.142-.226-4.624 0-5.76.58-2.913 2.029-5.634 4.165-7.821.965-.989 2.35-2.166 2.549-2.166.044 0 .168-.078.274-.174.709-.634 3.437-1.744 5.34-2.173.99-.223 4.77-.223 5.76 0 1.904.429 4.632 1.54 5.341 2.173.106.096.23.174.274.174.198 0 1.584 1.177 2.55 2.166 2.077 2.127 3.39 4.531 4.117 7.54.304 1.26.303 5.042-.003 6.322-.713 2.988-2.035 5.411-4.115 7.54-.965.99-2.35 2.167-2.549 2.167-.044 0-.168.078-.274.173-.559.5-2.849 1.518-4.238 1.884l-1.036.274c-.548.145-3.93.262-4.846.168m3.432-5.057a9.2 9.2 0 0 0 4.32-2.07c.6-.512.667-.695.183-.501-1.065.427-1.619.58-2.213.614-.291.016-.556.074-.59.128-.088.143-2.468.12-2.558-.025-.042-.067-.197-.123-.344-.124-.551-.004-1.642-.525-2.34-1.118-.209-.178-.57-.674-.803-1.103-.408-.753-.423-.826-.426-2.13-.003-1.236.02-1.374.27-1.624.15-.15.273-.336.273-.413 0-.2.484-.613 1.091-.933.443-.232.717-.275 1.75-.275h1.224l.756.508c1.099.74 1.368 1.339 1.366 3.036-.001.904-.046 1.292-.153 1.327-.084.028-.152.118-.152.2s-.225.383-.5.67l-.5.52.653-.082c.395-.05 1.011-.27 1.557-.557.497-.261.954-.475 1.016-.475.156 0 1.94-1.765 1.94-1.92 0-.069.104-.22.23-.334.127-.114.35-.605.497-1.09.147-.487.32-1.011.384-1.166.157-.384.146-1.855-.02-2.365-.41-1.27-1.097-2.39-1.926-3.143l-.574-.52-.096.52c-.054.286-.128.696-.166.91-.038.216-.174.486-.302.602-.127.116-.232.312-.232.436 0 .14-.088.226-.23.226-.127 0-.313.125-.414.276-.171.258-.267.276-1.516.273-1.112-.003-1.394-.043-1.7-.243-.49-.319-1.042-.905-1.042-1.105 0-.088-.06-.18-.135-.205-.208-.07-.193-2.04.019-2.52.097-.218.217-.397.268-.397s.093-.087.093-.193c0-.274.213-.442.98-.771 1.096-.47 1.045-.414 1.013-1.128-.015-.357-.084-.705-.153-.774-.068-.068-.124-.251-.124-.406s-.105-.387-.233-.515a1.5 1.5 0 0 1-.312-.48c-.102-.323-1.023-1.154-1.21-1.092-.08.026-.175.394-.214.834-.14 1.595-1.198 3.059-2.75 3.803-1.318.633-2.667 2.278-3.148 3.84-.217.704-.385 1.968-.395 2.968-.005.55-.052 1.043-.103 1.094-.115.115-.704-.424-.704-.645 0-.09-.055-.163-.122-.163-.068 0-.123-.134-.123-.298s-.052-.436-.116-.604-.129-.584-.144-.924c-.038-.818-.17-1.024-.36-.557l-.245.607c-.055.134-.165.465-.246.735s-.194.617-.253.771c-.143.378-.136 2.425.01 2.897.064.207.182.638.261.958s.193.582.251.582c.059 0 .107.125.107.277 0 .346.651 1.426 1.256 2.083.253.274.46.575.46.669 0 .093.185.247.41.342.227.094.505.314.619.488s.467.439.784.588c.317.15.604.299.638.333.161.161 1.23.591 1.777.715.337.076.833.191 1.103.257.521.126 1.33.091 2.328-.099"/></svg>