<?xml version="1.0" encoding="UTF-8" standalone="no"?>
<svg
   viewBox="0 0 30.767 30.782"
   version="1.1"
   id="svg213"
   sodipodi:docname="fire.svg"
   inkscape:version="1.2 (dc2aeda, 2022-05-15)"
   xmlns:inkscape="http://www.inkscape.org/namespaces/inkscape"
   xmlns:sodipodi="http://sodipodi.sourceforge.net/DTD/sodipodi-0.dtd"
   xmlns="http://www.w3.org/2000/svg"
   xmlns:svg="http://www.w3.org/2000/svg">
  <defs
     id="defs217" />
  <sodipodi:namedview
     id="namedview215"
     pagecolor="#505050"
     bordercolor="#eeeeee"
     borderopacity="1"
     inkscape:showpageshadow="0"
     inkscape:pageopacity="0"
     inkscape:pagecheckerboard="0"
     inkscape:deskcolor="#505050"
     showgrid="false"
     inkscape:zoom="8.9464256"
     inkscape:cx="20.902203"
     inkscape:cy="16.822361"
     inkscape:window-width="1440"
     inkscape:window-height="900"
     inkscape:window-x="0"
     inkscape:window-y="0"
     inkscape:window-maximized="0"
     inkscape:current-layer="svg213" />
  <path
     id="path379"
     style="fill:#000103;fill-opacity:1;stroke-width:0.256826;stroke-linecap:round;stroke-linejoin:round;stroke-miterlimit:500"
     d="M 15.382523,0.00721035 A 15.383626,15.383626 0 0 0 -2.8905082e-4,15.390023 15.383626,15.383626 0 0 0 15.382523,30.774789 15.383626,15.383626 0 0 0 30.767289,15.390023 15.383626,15.383626 0 0 0 15.382523,0.00721035 Z m 0.447266,4.13281245 c 1.852764,1.0672151 2.042656,3.3217776 2.035156,3.6289062 -1.25e-4,0.00512 1.17e-4,-8.737e-4 0,0.00391 0.04679,0.2429416 -0.247885,0.4557369 -0.574218,0.5683594 -0.170971,0.056469 -0.335073,0.1283987 -0.490235,0.2128906 -0.31032,0.1689838 -0.586131,0.3903918 -0.816406,0.6523437 -0.460548,0.523904 -0.738241,1.2083793 -0.744141,1.9511723 3.66e-4,1.651306 1.338927,2.989869 2.990235,2.990235 1.651305,-3.67e-4 2.989868,-1.33893 2.990234,-2.990235 0,-0.45229 -0.08097,-0.593131 0.101563,-0.431641 0.182531,0.161492 0.220345,0.210581 0.330078,0.320313 4.674047,4.144237 1.839545,10.59983 -4.109375,11.335937 0.398616,-0.366203 0.620734,-0.658064 0.970703,-1.154296 0.349997,-0.496272 0.4863,-1.137247 0.486328,-1.785157 -8.3e-5,-1.925407 -1.560921,-3.486245 -3.486328,-3.486328 -1.925407,8.3e-5 -3.486245,1.560921 -3.486328,3.486328 1.3e-5,0.311756 0.04432,0.61283 0.121094,0.900391 0.48118,2.89218 4.362236,4.937254 9.832031,2.638672 -0.105739,0.117858 -0.214815,0.234346 -0.328125,0.347656 -3.391775,3.391775 -8.896755,3.397093 -12.2832031,0 -2.701768,-2.710259 -3.44924,-7.331374 -1.63086,-10.015625 0.04477,-0.0444 0.170554,-0.162524 0.203125,0.154297 0.121175,1.265437 0.235041,2.568677 1.158204,3.207031 0.0863,0.0291 0.165375,0.04732 0.175781,-0.130859 -0.03674,-2.814116 0.440625,-5.769075 3.0332031,-7.4414069 0.944957,-0.5117538 1.907971,-0.9256163 2.59375,-2.1035156 0.607493,-1.0434419 0.81963,-2.1515022 0.927734,-2.859375 z" />
</svg>
