<?xml version="1.0" encoding="UTF-8" standalone="no"?>
<!-- Created with Inkscape (http://www.inkscape.org/) -->

<svg
   width="2.6151986in"
   height="2.6164854in"
   viewBox="0 0 30.767042 30.78218"
   version="1.1"
   id="svg5"
   inkscape:version="1.2 (dc2aeda, 2022-05-15)"
   xml:space="preserve"
   sodipodi:docname="poke-type-icons.svg"
   xmlns:inkscape="http://www.inkscape.org/namespaces/inkscape"
   xmlns:sodipodi="http://sodipodi.sourceforge.net/DTD/sodipodi-0.dtd"
   xmlns="http://www.w3.org/2000/svg"
   xmlns:svg="http://www.w3.org/2000/svg"><sodipodi:namedview
     id="namedview7"
     pagecolor="#505050"
     bordercolor="#eeeeee"
     borderopacity="1"
     inkscape:showpageshadow="false"
     inkscape:pageopacity="0"
     inkscape:pagecheckerboard="false"
     inkscape:deskcolor="#505050"
     inkscape:document-units="in"
     showgrid="true"
     inkscape:lockguides="false"
     inkscape:zoom="0.2489684"
     inkscape:cx="1206.9805"
     inkscape:cy="-929.83687"
     inkscape:window-width="1440"
     inkscape:window-height="900"
     inkscape:window-x="0"
     inkscape:window-y="0"
     inkscape:window-maximized="0"
     inkscape:current-layer="layer1" /><defs
     id="defs2" /><g
     inkscape:label="Layer 1"
     inkscape:groupmode="layer"
     id="layer1"
     transform="translate(-30.723314,231.50118)"><path
       id="path966"
       style="fill:#000000;stroke-width:0.122549"
       d="m 44.20232,-200.75306 c -0.76084,-0.0784 -2.062,-0.39921 -3.28258,-0.8093 -0.76499,-0.25702 -2.72283,-1.23429 -3.03834,-1.51661 -0.10641,-0.0952 -0.22988,-0.17312 -0.27438,-0.17312 -0.197999,0 -1.584049,-1.17771 -2.54914,-2.16598 -2.1365,-2.1878 -3.58781,-4.9137 -4.164439,-7.82176 -0.22646,-1.14208 -0.22688,-4.62389 -10e-4,-5.75981 0.580079,-2.91325 2.029129,-5.63445 4.165149,-7.82177 0.965091,-0.98827 2.351141,-2.16597 2.54914,-2.16597 0.0445,0 0.16797,-0.0779 0.27438,-0.17312 0.70875,-0.6342 3.43728,-1.74464 5.34052,-2.17347 0.9895,-0.22294 4.77031,-0.22294 5.75981,0 1.90325,0.42883 4.63177,1.53927 5.34052,2.17347 0.10641,0.0952 0.22988,0.17312 0.27438,0.17312 0.198,0 1.58406,1.1777 2.54914,2.16597 2.07782,2.12771 3.39063,4.53185 4.1176,7.54049 0.30435,1.25956 0.30271,5.042 -0.003,6.32236 -0.71266,2.98729 -2.03525,5.41093 -4.11487,7.54049 -0.96508,0.98827 -2.35114,2.16598 -2.54914,2.16598 -0.0445,0 -0.16796,0.0779 -0.27437,0.17312 -0.55829,0.49955 -2.84841,1.51778 -4.23759,1.88409 -0.26961,0.0711 -0.73581,0.19436 -1.03599,0.27392 -0.54805,0.14524 -3.92958,0.2624 -4.84636,0.1679 z m 3.43137,-5.05692 c 1.62559,-0.31006 3.06125,-0.99823 4.31985,-2.07066 0.59989,-0.51115 0.66722,-0.69453 0.18382,-0.50063 -1.06577,0.4275 -1.6192,0.58106 -2.21375,0.61422 -0.29077,0.0162 -0.55598,0.0737 -0.58933,0.12761 -0.0886,0.14343 -2.46874,0.12071 -2.55844,-0.0244 -0.0417,-0.0674 -0.19656,-0.12337 -0.34424,-0.12439 -0.55063,-0.004 -1.64198,-0.52525 -2.3393,-1.11776 -0.2091,-0.17767 -0.57052,-0.674 -0.80316,-1.10294 -0.40852,-0.75325 -0.4231,-0.82607 -0.42657,-2.1303 -0.003,-1.23613 0.0196,-1.37352 0.26979,-1.62377 0.15037,-0.15036 0.27339,-0.33599 0.27339,-0.41251 0,-0.20004 0.48413,-0.61388 1.09165,-0.93317 0.44249,-0.23256 0.71644,-0.27574 1.74935,-0.27574 h 1.22471 l 0.75513,0.50839 c 1.09896,0.73987 1.36842,1.33861 1.36626,3.03586 -10e-4,0.90424 -0.0459,1.29184 -0.15318,1.32761 -0.0834,0.0278 -0.15157,0.11754 -0.15157,0.19945 0,0.0819 -0.22502,0.38311 -0.50006,0.66933 l -0.50006,0.52042 0.65324,-0.0817 c 0.39443,-0.0493 1.01117,-0.27001 1.55662,-0.557 0.49687,-0.26143 0.95405,-0.47532 1.01598,-0.47532 0.15667,0 1.94095,-1.76431 1.94095,-1.91922 0,-0.0694 0.10332,-0.21962 0.2296,-0.33391 0.12628,-0.11428 0.34994,-0.60536 0.49703,-1.09129 0.14708,-0.48593 0.31949,-1.01019 0.38313,-1.16501 0.15792,-0.38415 0.14609,-1.8552 -0.019,-2.36566 -0.41051,-1.2692 -1.09784,-2.39032 -1.9268,-3.14285 l -0.57326,-0.52039 -0.0969,0.52039 c -0.0533,0.28622 -0.12786,0.69618 -0.1657,0.91101 -0.0378,0.21484 -0.17348,0.48534 -0.3014,0.60111 -0.12792,0.11576 -0.23259,0.31223 -0.23259,0.43659 0,0.13951 -0.0882,0.2261 -0.23014,0.2261 -0.12658,0 -0.31258,0.12408 -0.4133,0.27574 -0.17151,0.2582 -0.26792,0.27552 -1.51618,0.27247 -1.11224,-0.003 -1.39392,-0.043 -1.70067,-0.2429 -0.48902,-0.31875 -1.04167,-0.9048 -1.04167,-1.10462 0,-0.0884 -0.0607,-0.18089 -0.13489,-0.20562 -0.20783,-0.0693 -0.19329,-2.04005 0.0186,-2.51872 0.0969,-0.21885 0.21782,-0.39792 0.26877,-0.39792 0.051,0 0.0926,-0.0867 0.0926,-0.19257 0,-0.27453 0.21325,-0.44233 0.98039,-0.77148 1.0954,-0.46998 1.04459,-0.41339 1.01296,-1.12821 -0.0158,-0.35695 -0.0847,-0.70501 -0.15319,-0.77346 -0.0684,-0.0685 -0.12447,-0.25131 -0.12447,-0.40634 0,-0.15502 -0.10485,-0.38671 -0.233,-0.51486 -0.12815,-0.12815 -0.26837,-0.34445 -0.31161,-0.48066 -0.10241,-0.32269 -1.02319,-1.15327 -1.21023,-1.09169 -0.0808,0.0266 -0.17505,0.39478 -0.21354,0.83458 -0.1396,1.59496 -1.19799,3.05882 -2.74976,3.8032 -1.31847,0.63246 -2.66722,2.27746 -3.1488,3.84043 -0.21681,0.70362 -0.38496,1.96683 -0.39505,2.9675 -0.005,0.55036 -0.0516,1.04231 -0.10246,1.09322 -0.11527,0.11546 -0.70418,-0.42367 -0.70418,-0.64465 0,-0.0893 -0.0551,-0.16246 -0.12255,-0.16246 -0.0674,0 -0.12255,-0.13428 -0.12255,-0.29839 0,-0.16412 -0.0522,-0.43579 -0.11608,-0.60371 -0.0639,-0.16792 -0.12878,-0.58393 -0.14432,-0.92446 -0.0373,-0.81753 -0.17023,-1.02356 -0.35918,-0.55675 -0.0804,0.19869 -0.19086,0.47155 -0.24542,0.60635 -0.0546,0.13481 -0.16503,0.46569 -0.24551,0.7353 -0.0805,0.2696 -0.19441,0.61687 -0.2532,0.77169 -0.14329,0.37739 -0.1364,2.42445 0.01,2.89607 0.0641,0.207 0.18159,0.6383 0.26102,0.95846 0.0794,0.32016 0.19239,0.5821 0.25104,0.5821 0.0586,0 0.10662,0.1244 0.10662,0.27644 0,0.34675 0.65114,1.42666 1.25612,2.0833 0.25276,0.27433 0.45956,0.57534 0.45956,0.66892 0,0.0936 0.18495,0.2474 0.411,0.34185 0.22605,0.0944 0.50433,0.31418 0.61843,0.48829 0.11408,0.17412 0.46681,0.43869 0.78384,0.58796 0.31704,0.14926 0.60401,0.29896 0.63771,0.33266 0.16169,0.16169 1.2303,0.5918 1.77696,0.71523 0.33701,0.0761 0.83334,0.19164 1.10295,0.25678 0.52198,0.12612 1.32985,0.0919 2.32843,-0.0985 z" /></g></svg>
