<?xml version="1.0" encoding="UTF-8" standalone="no"?>
<!-- Created with Inkscape (http://www.inkscape.org/) -->

<svg
   width="2.6079018in"
   height="2.6082807in"
   viewBox="0 0 30.681198 30.685654"
   version="1.1"
   id="svg5"
   inkscape:version="1.2 (dc2aeda, 2022-05-15)"
   xml:space="preserve"
   sodipodi:docname="poke-type-icons.svg"
   xmlns:inkscape="http://www.inkscape.org/namespaces/inkscape"
   xmlns:sodipodi="http://sodipodi.sourceforge.net/DTD/sodipodi-0.dtd"
   xmlns="http://www.w3.org/2000/svg"
   xmlns:svg="http://www.w3.org/2000/svg"><sodipodi:namedview
     id="namedview7"
     pagecolor="#505050"
     bordercolor="#eeeeee"
     borderopacity="1"
     inkscape:showpageshadow="false"
     inkscape:pageopacity="0"
     inkscape:pagecheckerboard="false"
     inkscape:deskcolor="#505050"
     inkscape:document-units="in"
     showgrid="true"
     inkscape:lockguides="false"
     inkscape:zoom="0.2489684"
     inkscape:cx="1206.9805"
     inkscape:cy="-929.83687"
     inkscape:window-width="1440"
     inkscape:window-height="900"
     inkscape:window-x="0"
     inkscape:window-y="0"
     inkscape:window-maximized="0"
     inkscape:current-layer="layer1" /><defs
     id="defs2" /><g
     inkscape:label="Layer 1"
     inkscape:groupmode="layer"
     id="layer1"
     transform="translate(-196.83952,90.498316)"><path
       id="path990"
       style="fill:#000000;stroke-width:0.122549"
       d="m 210.46341,-59.930248 c -1.99431,-0.22159 -3.57034,-0.70325 -5.39679,-1.64937 -4.36059,-2.25885 -7.5098,-6.75412 -8.08558,-11.54162 -0.32515,-2.7036 -0.10411,-4.70697 0.80917,-7.33368 1.22282,-3.51696 4.04637,-6.69446 7.46487,-8.40063 3.96116,-1.97701 8.35217,-2.17413 12.62255,-0.56665 2.31967,0.87319 5.02845,2.97379 6.68193,5.1817 1.40863,1.88095 2.50363,4.59424 2.82288,6.99484 0.74831,5.62678 -1.57203,11.05838 -6.20415,14.52306 -1.8512,1.38464 -4.65952,2.49266 -6.97713,2.75283 -1.7791,0.19972 -2.25094,0.20471 -3.73775,0.0395 z m 0.94215,-6.47825 c 1.49854,-0.3451 2.66124,-0.9713 3.66246,-1.97252 l 0.28621,-0.28621 h -0.34707 c -0.39712,0 -0.66188,-0.25417 -0.60025,-0.57622 0.0357,-0.18669 0.22306,-0.23327 1.22647,-0.30492 1.32876,-0.0949 2.14894,-0.37713 3.05437,-1.05104 0.63679,-0.47398 1.73695,-1.83125 1.20654,-1.48854 -0.65206,0.42132 -2.77428,0.54125 -6.39779,0.36155 -0.0506,-0.003 -0.0919,-0.16262 -0.0919,-0.3558 v -0.35124 l 1.86887,-0.0612 c 1.48947,-0.0488 2.02785,-0.11573 2.65195,-0.32986 1.54964,-0.53168 2.88695,-1.70864 3.57173,-3.14345 0.4493,-0.94144 0.45326,-1.03855 0.0263,-0.64636 -0.59655,0.54801 -1.10903,0.84539 -2.01963,1.17194 -0.87249,0.31289 -0.95299,0.31926 -3.89336,0.30792 -1.65135,-0.006 -3.04381,-0.0153 -3.09437,-0.0197 -0.0506,-0.004 -0.0919,-0.16597 -0.0919,-0.35886 v -0.3507 l 2.0527,-0.0714 c 2.09355,-0.0729 3.01093,-0.26214 4.13777,-0.85362 2.23899,-1.17527 3.72819,-3.45615 4.03887,-6.18603 0.0465,-0.40869 0.027,-0.64338 -0.0536,-0.64338 -0.0697,0 -0.12676,0.0538 -0.12676,0.11958 0,0.28846 -1.53346,1.42392 -2.45098,1.81484 -1.21483,0.5176 -1.5267,0.54754 -6.61765,0.63521 -5.33807,0.0919 -5.1612,0.07 -6.7402,0.83424 -1.59467,0.77179 -3.18801,2.60279 -3.70308,4.25544 -0.49681,1.59406 -0.55662,2.35954 -0.28465,3.6429 0.32893,1.55211 0.87986,2.59202 1.96568,3.71029 0.53921,0.55534 1.2837,1.1813 1.65441,1.39103 0.61002,0.34512 0.93425,0.46397 2.32843,0.85355 0.66232,0.18508 1.8596,0.16468 2.78038,-0.0474 z" /></g></svg>
