<?xml version="1.0" encoding="UTF-8" standalone="no"?>
<!-- Created with Inkscape (http://www.inkscape.org/) -->

<svg
   width="2.6030328in"
   height="2.6018255in"
   viewBox="0 0 30.623916 30.60971"
   version="1.1"
   id="svg5"
   inkscape:version="1.2 (dc2aeda, 2022-05-15)"
   xml:space="preserve"
   sodipodi:docname="poke-type-icons.svg"
   xmlns:inkscape="http://www.inkscape.org/namespaces/inkscape"
   xmlns:sodipodi="http://sodipodi.sourceforge.net/DTD/sodipodi-0.dtd"
   xmlns="http://www.w3.org/2000/svg"
   xmlns:svg="http://www.w3.org/2000/svg"><sodipodi:namedview
     id="namedview7"
     pagecolor="#505050"
     bordercolor="#eeeeee"
     borderopacity="1"
     inkscape:showpageshadow="false"
     inkscape:pageopacity="0"
     inkscape:pagecheckerboard="false"
     inkscape:deskcolor="#505050"
     inkscape:document-units="in"
     showgrid="true"
     inkscape:lockguides="false"
     inkscape:zoom="0.2489684"
     inkscape:cx="1206.9805"
     inkscape:cy="-929.83687"
     inkscape:window-width="1440"
     inkscape:window-height="900"
     inkscape:window-x="0"
     inkscape:window-y="0"
     inkscape:window-maximized="0"
     inkscape:current-layer="layer1" /><defs
     id="defs2" /><g
     inkscape:label="Layer 1"
     inkscape:groupmode="layer"
     id="layer1"
     transform="translate(-99.546553,75.036867)"><path
       id="path952"
       style="fill:#000000;stroke-width:0.122549"
       d="m 112.22403,-44.557729 c -1.11875,-0.2155 -3.05133,-0.84461 -3.98284,-1.29653 -2.20722,-1.07084 -4.60119,-3.07281 -5.88845,-4.92424 -1.29636,-1.86451 -2.25026,-4.13725 -2.624256,-6.25244 -0.21786,-1.2321 -0.24643,-4.14102 -0.0511,-5.19852 0.404766,-2.19103 1.408996,-4.62274 2.640926,-6.39494 1.31742,-1.89517 3.82778,-4.00707 5.92285,-4.98274 1.01129,-0.47096 2.95633,-1.08523 4.11277,-1.29887 1.0575,-0.19536 3.96641,-0.16679 5.19851,0.0511 1.33768,0.23652 3.32828,0.91124 4.45089,1.50863 2.84605,1.51452 5.43771,4.21277 6.74786,7.0254 0.46231,0.99248 1.07694,2.94333 1.28904,4.09145 0.19087,1.03315 0.16752,3.96265 -0.041,5.13968 -1.1276,6.36621 -6.13945,11.37806 -12.50566,12.50566 -1.10798,0.19625 -4.30467,0.21226 -5.26961,0.0264 z m 6.77623,-6.04489 c 1.00608,-0.15727 1.94099,-0.42677 3.15024,-0.90808 l 0.36765,-0.14634 -0.42892,-0.22335 c -0.23591,-0.12285 -0.53193,-0.39964 -0.65782,-0.6151 -0.3532,-0.6045 -0.21354,-1.16043 0.57374,-2.28397 0.9893,-1.41183 1.5032,-2.7792 1.66653,-4.43423 0.27545,-2.79121 -0.61297,-5.37996 -2.54216,-7.40754 -1.84239,-1.93635 -4.09425,-2.90727 -6.7428,-2.90727 -2.46897,0 -4.14014,0.62216 -6.25433,2.32843 -0.63692,0.51402 -1.91095,2.18018 -2.23366,2.92114 -0.75426,1.73184 -0.88728,2.34104 -0.88737,4.06415 -9e-5,1.65971 0.0534,1.96372 0.61488,3.49265 0.77338,2.10604 2.75677,4.13691 5.03832,5.15893 0.5207,0.23325 1.05702,0.47523 1.19182,0.53773 0.37015,0.17162 1.73166,0.4775 2.69608,0.60571 1.03055,0.13699 2.8909,0.0605 4.4478,-0.18286 z m -8.99846,-8.71638 c -0.35202,-0.069 -1.2338,-0.83713 -1.45745,-1.26964 -0.4064,-0.78588 -0.0958,-2.10806 0.62906,-2.67828 0.49958,-0.39297 0.78346,-0.34044 0.78346,0.14497 0,0.36439 0.20826,0.79702 0.54646,1.13523 0.42727,0.42727 0.76892,0.54645 1.56648,0.54645 h 0.83291 l -0.0808,0.33701 c -0.31637,1.31944 -1.46942,2.04896 -2.82011,1.78426 z m 7.43423,-0.0517 c -0.77597,-0.30969 -1.33121,-0.94246 -1.52083,-1.73319 l -0.081,-0.33766 0.71713,0.0162 c 0.46184,0.0104 0.87986,-0.061 1.1742,-0.20068 0.47379,-0.22483 1.05484,-0.94271 1.05484,-1.30323 0,-0.66079 0.3965,-0.77643 0.8822,-0.25731 0.69127,0.73884 0.92197,1.84588 0.53757,2.57962 -0.55228,1.05419 -1.8104,1.61687 -2.76414,1.23624 z" /></g></svg>
