<?xml version="1.0" encoding="UTF-8" standalone="no"?>
<!-- Created with Inkscape (http://www.inkscape.org/) -->

<svg
   width="2.6034403in"
   height="2.6057839in"
   viewBox="0 0 30.628709 30.656281"
   version="1.1"
   id="svg5"
   inkscape:version="1.2 (dc2aeda, 2022-05-15)"
   xml:space="preserve"
   sodipodi:docname="poke-type-icons.svg"
   xmlns:inkscape="http://www.inkscape.org/namespaces/inkscape"
   xmlns:sodipodi="http://sodipodi.sourceforge.net/DTD/sodipodi-0.dtd"
   xmlns="http://www.w3.org/2000/svg"
   xmlns:svg="http://www.w3.org/2000/svg"><sodipodi:namedview
     id="namedview7"
     pagecolor="#505050"
     bordercolor="#eeeeee"
     borderopacity="1"
     inkscape:showpageshadow="false"
     inkscape:pageopacity="0"
     inkscape:pagecheckerboard="false"
     inkscape:deskcolor="#505050"
     inkscape:document-units="in"
     showgrid="true"
     inkscape:lockguides="false"
     inkscape:zoom="0.2489684"
     inkscape:cx="1206.9805"
     inkscape:cy="-929.83687"
     inkscape:window-width="1440"
     inkscape:window-height="900"
     inkscape:window-x="0"
     inkscape:window-y="0"
     inkscape:window-maximized="0"
     inkscape:current-layer="layer1" /><defs
     id="defs2" /><g
     inkscape:label="Layer 1"
     inkscape:groupmode="layer"
     id="layer1"
     transform="translate(-121.11757,234.63483)"><path
       id="path934"
       style="fill:#000000;stroke-width:0.122549"
       d="m 135.39238,-204.00738 c -6.16972,-0.39303 -11.54735,-4.53655 -13.49738,-10.39988 -0.56666,-1.70385 -0.77485,-3.03295 -0.77742,-4.96323 -0.008,-5.79493 3.23235,-11.05466 8.3981,-13.63301 2.24095,-1.11852 4.36744,-1.62428 6.85868,-1.63126 4.24931,-0.0119 7.98609,1.53639 10.96655,4.54389 2.18579,2.2056 3.54345,4.78546 4.18069,7.94424 0.38516,1.90919 0.25609,5.52102 -0.24195,6.77053 -0.0646,0.16215 -0.21322,0.6257 -0.33021,1.03012 -0.53502,1.84956 -2.01706,4.22018 -3.67452,5.87764 -1.65422,1.65421 -4.04014,3.14812 -5.87764,3.68019 -0.40441,0.1171 -0.87316,0.26685 -1.04166,0.33278 -0.87883,0.34386 -3.24505,0.55744 -4.96324,0.44799 z m 1.53187,-4.79346 c 0.1011,-0.0288 0.40441,-0.0961 0.67401,-0.14959 0.63869,-0.1267 1.80943,-0.65544 2.6444,-1.19431 1.29939,-0.8386 2.65969,-2.45403 3.38292,-4.01742 0.32754,-0.70804 0.8513,-2.37031 0.94603,-3.00245 0.0404,-0.26961 0.13387,-0.87623 0.2077,-1.34804 0.24014,-1.53465 0.0131,-6.50029 -0.35868,-7.84314 -0.0746,-0.2696 -0.17027,-0.71078 -0.21251,-0.98039 -0.13258,-0.84596 -0.0972,-0.83546 -2.56304,-0.76144 -1.21472,0.0365 -2.56704,0.1267 -3.00515,0.20053 -0.43811,0.0738 -1.15502,0.1947 -1.59314,0.26861 -1.85091,0.31226 -4.14087,1.07862 -5.5147,1.84557 -0.77505,0.43267 -2.1465,1.43403 -2.52536,1.84388 -0.6381,0.69028 -1.48623,1.92994 -1.74223,2.54648 -0.15392,0.37071 -0.32974,0.78431 -0.39071,0.91912 -0.061,0.1348 -0.2032,0.81774 -0.31608,1.51765 -0.24148,1.49736 -0.12565,2.73157 0.40797,4.34659 0.34542,1.04542 1.14994,2.40781 1.42186,2.40781 0.22199,0 1.59296,-1.5317 1.68022,-1.87721 0.0371,-0.14707 0.0489,-1.96011 0.026,-4.02899 l -0.0415,-3.76161 0.27213,-0.14564 c 0.41285,-0.22095 0.64352,0.16439 0.82173,1.37266 0.0833,0.56462 0.2268,1.38504 0.31895,1.82315 0.2778,1.32094 0.43466,2.26335 0.43466,2.61154 0,0.45207 0.1411,0.41514 0.69216,-0.18114 0.25964,-0.28093 0.74779,-0.78976 1.0848,-1.13072 0.94366,-0.95475 1.42069,-1.56011 1.39997,-1.77655 -0.0104,-0.10843 -0.0125,-1.22922 -0.005,-2.49063 0.0131,-2.1314 0.0308,-2.30242 0.25034,-2.41991 0.39884,-0.21345 0.60053,-0.0232 0.75331,0.71056 0.0795,0.3817 0.22024,0.96596 0.31279,1.29836 0.0926,0.33239 0.16827,0.78735 0.16827,1.01102 0,0.22368 0.0615,0.40668 0.13671,0.40668 0.0752,0 0.54797,-0.42739 1.0506,-0.94975 2.8654,-2.9779 3.25535,-3.33946 3.60161,-3.33946 0.40948,0 0.56622,0.34463 0.34625,0.7613 -0.14576,0.27607 -0.78246,1.15778 -2.52905,3.50217 -0.48758,0.65448 -0.8874,1.22323 -0.88848,1.26389 -0.002,0.091 1.60172,0.23244 2.63633,0.23244 0.83141,0 1.07282,0.14749 0.95828,0.58547 -0.0505,0.1932 -0.19213,0.28477 -0.51571,0.33348 -0.24533,0.0369 -0.72179,0.14376 -1.0588,0.23739 -0.33701,0.0936 -1.13664,0.26228 -1.77696,0.37479 -0.64032,0.1125 -1.30773,0.23022 -1.48314,0.26159 -0.21996,0.0393 -0.50442,0.31194 -0.91672,0.87849 -1.53794,2.11329 -1.88935,2.6055 -1.88935,2.64634 0,0.0242 1.33731,0.0177 2.97181,-0.0145 2.5093,-0.0493 3.0092,-0.03 3.21206,0.12444 0.20035,0.1525 0.21792,0.23189 0.10577,0.47803 -0.11806,0.2591 -0.28963,0.3224 -1.40447,0.51818 -0.69848,0.12266 -1.79388,0.29529 -2.43419,0.38362 -1.01725,0.14032 -3.83862,0.62816 -4.06369,0.70265 -0.18602,0.0616 -1.44745,1.95543 -1.37766,2.06837 0.1268,0.20517 1.15529,0.60162 2.1938,0.84564 0.90764,0.21327 2.87333,0.26075 3.49264,0.0844 z" /></g></svg>
