<?xml version="1.0" encoding="UTF-8" standalone="no"?>
<svg
   xml:space="preserve"
   width="249.93"
   height="250.155"
   viewBox="0 0 30.629 30.656"
   version="1.1"
   id="svg213"
   sodipodi:docname="grass.svg"
   inkscape:version="1.2 (dc2aeda, 2022-05-15)"
   xmlns:inkscape="http://www.inkscape.org/namespaces/inkscape"
   xmlns:sodipodi="http://sodipodi.sourceforge.net/DTD/sodipodi-0.dtd"
   xmlns="http://www.w3.org/2000/svg"
   xmlns:svg="http://www.w3.org/2000/svg"><defs
     id="defs217" /><sodipodi:namedview
     id="namedview215"
     pagecolor="#505050"
     bordercolor="#eeeeee"
     borderopacity="1"
     inkscape:showpageshadow="0"
     inkscape:pageopacity="0"
     inkscape:pagecheckerboard="0"
     inkscape:deskcolor="#505050"
     showgrid="false"
     inkscape:zoom="1.6234537"
     inkscape:cx="74.53246"
     inkscape:cy="93.319568"
     inkscape:window-width="1440"
     inkscape:window-height="900"
     inkscape:window-x="0"
     inkscape:window-y="0"
     inkscape:window-maximized="0"
     inkscape:current-layer="svg213" /><path
     id="path1116"
     style="fill:#000003;fill-opacity:1;stroke-width:0.122549"
     d="M 22.508,20.473 C 24.342782,16.332373 24.063624,10.562374 22.957413,6.6625796 17.606773,5.9400575 11.025867,7.6033497 7.8890001,10.696 c -3.136867,3.09265 -3.1589315,9.203085 -0.619,11.738 0.222,0 1.592,-1.532 1.68,-1.878 0.3101592,-1.2621 -0.5194497,-7.767707 0.3332368,-8.090474 0.8526861,-0.322767 1.3558361,4.88168 1.4987631,6.374403 1.366033,-1.321966 3.177,-3.500929 3.177,-3.500929 0.207545,-0.525884 -0.455064,-4.390354 0.280192,-4.937538 0.880513,-0.6552869 1.095666,3.392034 1.335808,3.453538 0.324783,0.162392 4.306022,-4.9287287 4.935202,-4.1860175 0.750573,0.8860085 -2.878494,4.1594055 -3.431439,5.4755085 0.831501,0.291865 3.629725,-0.03193 3.749474,0.509053 0.197263,0.89117 -3.875703,1.204257 -4.912237,1.465456 -0.417262,-0.09255 -2.807,3.524 -2.807,3.524 -0.05714,0.217141 7.806477,-0.642165 6.19107,0.747398 -0.512673,0.440999 -5.857514,0.825718 -7.80307,1.445602 -0.186,0.061 -1.447,1.955 -1.377,2.068 4.916839,2.592463 10.553218,-0.290373 12.388,-4.431 z m 8.121058,-5.145 c 0,8.458021 -6.856561,15.314601 -15.314558,15.314601 C 6.8565031,30.642601 -5.7925e-5,23.786021 -5.7925e-5,15.328 -5.7974705e-5,6.8699794 6.8565031,0.01339903 15.3145,0.01339895 c 8.457997,0 15.314558,6.85658045 15.314558,15.31460105 z"
     sodipodi:nodetypes="zczcczccscscsccscczsssss" /></svg>
