<svg xmlns="http://www.w3.org/2000/svg" xml:space="preserve" width="249.93" height="250.155" viewBox="0 0 30.629 30.656"><path d="M135.392-204.007c-6.17-.393-11.547-4.537-13.497-10.4-.567-1.704-.775-3.033-.777-4.963a15.17 15.17 0 0 1 8.398-13.634c2.24-1.118 4.367-1.624 6.858-1.63 4.25-.013 7.986 1.536 10.967 4.543 2.186 2.206 3.543 4.786 4.18 7.944.386 1.91.257 5.521-.241 6.77a16 16 0 0 0-.33 1.031c-.536 1.85-2.018 4.22-3.675 5.878-1.654 1.654-4.04 3.148-5.878 3.68-.404.117-.873.267-1.041.333-.88.343-3.245.557-4.964.448m1.532-4.794c.101-.029.405-.096.674-.15.639-.126 1.81-.655 2.645-1.194 1.3-.838 2.66-2.454 3.383-4.017.327-.708.85-2.37.946-3.003.04-.27.133-.876.207-1.348.24-1.534.013-6.5-.358-7.843-.075-.27-.17-.71-.213-.98-.132-.846-.097-.836-2.563-.762-1.215.037-2.567.127-3.005.2l-1.593.27c-1.851.312-4.141 1.078-5.515 1.845-.775.433-2.146 1.434-2.525 1.844-.638.69-1.487 1.93-1.743 2.546-.153.371-.33.785-.39.92-.061.134-.203.817-.316 1.517-.242 1.498-.126 2.732.408 4.347.345 1.045 1.15 2.408 1.422 2.408.222 0 1.592-1.532 1.68-1.878.037-.147.049-1.96.026-4.029l-.042-3.761.272-.146c.413-.22.644.165.822 1.373.083.564.227 1.385.32 1.823.277 1.32.434 2.263.434 2.612 0 .452.14.415.692-.182.26-.28.748-.79 1.085-1.13.943-.955 1.42-1.56 1.4-1.777-.01-.108-.013-1.23-.005-2.49.013-2.132.03-2.303.25-2.42.399-.214.6-.024.753.71.08.382.22.966.313 1.298s.168.788.168 1.012.062.406.137.406.548-.427 1.05-.95c2.866-2.977 3.256-3.339 3.602-3.339.41 0 .567.345.347.761-.146.276-.783 1.158-2.53 3.502-.487.655-.887 1.224-.888 1.264-.002.091 1.602.233 2.636.233.832 0 1.073.147.959.585-.05.193-.193.285-.516.334a11 11 0 0 0-1.059.237c-.337.094-1.137.262-1.777.375s-1.308.23-1.483.262c-.22.039-.504.311-.917.878-1.538 2.113-1.89 2.605-1.89 2.646 0 .025 1.338.018 2.973-.014 2.51-.05 3.009-.03 3.212.124.2.153.218.232.106.478-.118.26-.29.323-1.405.518a81 81 0 0 1-2.434.384c-1.017.14-3.839.628-4.064.703-.186.061-1.447 1.955-1.377 2.068.126.205 1.155.602 2.193.846.908.213 2.874.26 3.493.084z" style="fill:#000;stroke-width:.122549" transform="translate(-121.118 234.635)"/></svg>