<?xml version="1.0" encoding="UTF-8" standalone="no"?>
<!-- Created with Inkscape (http://www.inkscape.org/) -->

<svg
   width="2.6088357in"
   height="2.6090651in"
   viewBox="0 0 30.692185 30.694882"
   version="1.1"
   id="svg5"
   inkscape:version="1.2 (dc2aeda, 2022-05-15)"
   xml:space="preserve"
   sodipodi:docname="poke-type-icons.svg"
   xmlns:inkscape="http://www.inkscape.org/namespaces/inkscape"
   xmlns:sodipodi="http://sodipodi.sourceforge.net/DTD/sodipodi-0.dtd"
   xmlns="http://www.w3.org/2000/svg"
   xmlns:svg="http://www.w3.org/2000/svg"><sodipodi:namedview
     id="namedview7"
     pagecolor="#505050"
     bordercolor="#eeeeee"
     borderopacity="1"
     inkscape:showpageshadow="false"
     inkscape:pageopacity="0"
     inkscape:pagecheckerboard="false"
     inkscape:deskcolor="#505050"
     inkscape:document-units="in"
     showgrid="true"
     inkscape:lockguides="false"
     inkscape:zoom="0.2489684"
     inkscape:cx="1206.9805"
     inkscape:cy="-929.83687"
     inkscape:window-width="1440"
     inkscape:window-height="900"
     inkscape:window-x="0"
     inkscape:window-y="0"
     inkscape:window-maximized="0"
     inkscape:current-layer="layer1" /><defs
     id="defs2" /><g
     inkscape:label="Layer 1"
     inkscape:groupmode="layer"
     id="layer1"
     transform="translate(-196.58729,35.610535)"><path
       id="path994"
       style="fill:#000000;stroke-width:0.122549"
       d="m 210.58597,-4.9623385 c -5.93325,-0.46978 -11.257,-4.64949 -13.18535,-10.3519195 -1.87587,-5.54722 -0.44826,-11.68443 3.67776,-15.81045 5.92866,-5.92867 15.65694,-5.98852 21.5667,-0.13269 2.35726,2.33574 3.70782,4.8648 4.42821,8.29224 0.35813,1.70386 0.23424,4.90297 -0.25152,6.4951 -0.97329,3.19007 -2.04193,5.0568 -4.03694,7.0518095 -1.99433,1.99433 -3.90824,3.08932 -7.05181,4.0345 -1.27943,0.38469 -3.40889,0.55903 -5.14705,0.42141 z m -7.2896,-9.5469395 c 0.38044,0 0.40577,-0.0327 0.73491,-0.94975 0.42179,-1.17517 1.20288,-3.24075 1.6567,-4.38113 0.18775,-0.47181 0.45186,-1.18872 0.58691,-1.59313 0.13506,-0.40442 0.49853,-1.39475 0.80772,-2.20074 0.3092,-0.806 0.56218,-1.48155 0.56218,-1.50123 0,-0.0197 -0.74621,-0.0358 -1.65826,-0.0358 -1.21762,0 -1.67185,0.0407 -1.70942,0.15319 -0.0503,0.1505 -1.93227,5.26625 -2.42325,6.58701 -0.13782,0.37071 -0.32086,0.83946 -0.40675,1.04166 -0.0859,0.20221 -0.34933,0.92964 -0.58537,1.61651 l -0.42917,1.24887 0.32792,0.0578 c 0.18037,0.0318 0.73606,0.0351 1.2349,0.007 0.49884,-0.0278 1.08428,-0.0505 1.30098,-0.0505 z m 19.59005,-0.0971 c 0.033,-0.0534 -0.24248,-0.8944 -0.61217,-1.86887 -0.55964,-1.47513 -1.68423,-4.50295 -2.75184,-7.40902 -0.1238,-0.33701 -0.33098,-0.88849 -0.46038,-1.22549 -0.12941,-0.33701 -0.40731,-1.07104 -0.61757,-1.63116 -0.21026,-0.56013 -0.43954,-1.12539 -0.5095,-1.25613 -0.12115,-0.22636 -0.28734,-0.23771 -3.478,-0.23771 -2.53162,0 -3.38164,0.0374 -3.47701,0.15318 -0.0694,0.0842 -0.49003,1.13 -0.93467,2.32388 -0.44466,1.19388 -0.85933,2.29682 -0.92151,2.45098 -0.0622,0.15416 -0.34062,0.91448 -0.61876,1.6896 -0.27815,0.77512 -0.58298,1.60233 -0.6774,1.83824 -0.0944,0.2359 -0.45202,1.20098 -0.79465,2.14461 -0.34262,0.94362 -0.73116,1.97407 -0.8634,2.28987 -0.13226,0.3158 -0.24046,0.6329 -0.24046,0.70466 0,0.15547 16.86135,0.18865 16.95732,0.0334 z" /></g></svg>
