<?xml version="1.0" encoding="UTF-8" standalone="no"?>
<svg
   xml:space="preserve"
   width="251.581"
   height="251.249"
   viewBox="0 0 30.831 30.79"
   version="1.1"
   id="svg213"
   sodipodi:docname="ice.svg"
   inkscape:version="1.2 (dc2aeda, 2022-05-15)"
   xmlns:inkscape="http://www.inkscape.org/namespaces/inkscape"
   xmlns:sodipodi="http://sodipodi.sourceforge.net/DTD/sodipodi-0.dtd"
   xmlns="http://www.w3.org/2000/svg"
   xmlns:svg="http://www.w3.org/2000/svg"><defs
     id="defs217" /><sodipodi:namedview
     id="namedview215"
     pagecolor="#505050"
     bordercolor="#eeeeee"
     borderopacity="1"
     inkscape:showpageshadow="0"
     inkscape:pageopacity="0"
     inkscape:pagecheckerboard="0"
     inkscape:deskcolor="#505050"
     showgrid="false"
     inkscape:zoom="2.1157504"
     inkscape:cx="98.310273"
     inkscape:cy="86.257811"
     inkscape:window-width="1440"
     inkscape:window-height="900"
     inkscape:window-x="0"
     inkscape:window-y="0"
     inkscape:window-maximized="0"
     inkscape:current-layer="svg213" /><path
     id="path379-9"
     style="fill:#000000;fill-opacity:1;stroke-width:0.00685488;stroke-linecap:round;stroke-linejoin:round;stroke-miterlimit:500"
     d="M 15.415564 -0.00015682059 A 15.395157 15.395157 0 0 0 0.020345049 15.395062 A 15.395157 15.395157 0 0 0 15.415564 30.790041 A 15.395157 15.395157 0 0 0 30.810543 15.395062 A 15.395157 15.395157 0 0 0 15.415564 -0.00015682059 z M 21.01117 5.6583998 L 21.0521 11.136963 L 16.276997 13.90006 L 16.2758 13.898145 L 16.266705 13.898145 L 16.258806 8.3798493 L 21.01117 5.6583998 z M 9.7811817 5.6806597 L 14.55054 8.3867906 L 14.554848 13.900299 L 9.7620334 11.127149 L 9.7811817 5.6806597 z M 21.908267 12.615449 L 26.645552 15.372562 L 21.908507 18.155047 L 17.139388 15.39578 L 17.142021 15.391471 L 17.135797 15.3807 L 21.908267 12.615449 z M 8.9393753 12.625023 L 13.697963 15.382376 L 13.689585 15.396977 L 8.9061052 18.164861 L 4.1853357 15.417322 L 8.9393753 12.625023 z M 14.548146 16.88025 L 14.555088 16.891979 L 14.557002 16.891979 L 14.561311 22.416258 L 9.8197176 25.131724 L 9.7785488 19.644065 L 14.548146 16.88025 z M 16.285614 16.881926 L 21.068854 19.65364 L 21.049945 25.109464 L 16.278912 22.402136 L 16.271013 16.888628 L 16.281784 16.888628 L 16.285614 16.881926 z " /></svg>
