<?xml version="1.0" encoding="UTF-8" standalone="no"?>
<!-- Created with Inkscape (http://www.inkscape.org/) -->

<svg
   width="2.620636in"
   height="2.617178in"
   viewBox="0 0 30.831012 30.790328"
   version="1.1"
   id="svg5"
   inkscape:version="1.2 (dc2aeda, 2022-05-15)"
   xml:space="preserve"
   sodipodi:docname="poke-type-icons.svg"
   xmlns:inkscape="http://www.inkscape.org/namespaces/inkscape"
   xmlns:sodipodi="http://sodipodi.sourceforge.net/DTD/sodipodi-0.dtd"
   xmlns="http://www.w3.org/2000/svg"
   xmlns:svg="http://www.w3.org/2000/svg"><sodipodi:namedview
     id="namedview7"
     pagecolor="#505050"
     bordercolor="#eeeeee"
     borderopacity="1"
     inkscape:showpageshadow="false"
     inkscape:pageopacity="0"
     inkscape:pagecheckerboard="false"
     inkscape:deskcolor="#505050"
     inkscape:document-units="in"
     showgrid="true"
     inkscape:lockguides="false"
     inkscape:zoom="0.2489684"
     inkscape:cx="1206.9805"
     inkscape:cy="-929.83687"
     inkscape:window-width="1440"
     inkscape:window-height="900"
     inkscape:window-x="0"
     inkscape:window-y="0"
     inkscape:window-maximized="0"
     inkscape:current-layer="layer1" /><defs
     id="defs2" /><g
     inkscape:label="Layer 1"
     inkscape:groupmode="layer"
     id="layer1"
     transform="translate(-48.527827,183.77793)"><path
       id="path912"
       style="fill:#000000;stroke-width:0.122549"
       d="m 61.652382,-153.10152 c -2.29311,-0.37575 -4.8632,-1.42836 -6.69551,-2.74223 -1.10654,-0.79346 -2.85955,-2.56443 -3.66759,-3.70516 -1.1138,-1.5724 -2.0343,-3.74804 -2.50128,-5.91186 -0.42515,-1.96997 -0.31687,-5.12947 0.23437,-6.83923 0.0967,-0.30002 0.27025,-0.84879 0.3856,-1.2195 0.31033,-0.99735 1.22435,-2.75211 1.98902,-3.81857 0.79864,-1.11382 2.59901,-2.89952 3.71334,-3.68308 4.58936,-3.22705 10.63529,-3.65281 15.74755,-1.10894 3.31196,1.64804 6.0858,4.68368 7.3936,8.09143 0.58607,1.52713 0.74464,2.10125 0.93878,3.39906 0.7366,4.92391 -0.96612,9.85699 -4.61065,13.35785 -2.17585,2.09007 -4.72217,3.43219 -7.70457,4.06093 -1.18141,0.24905 -4.03327,0.3142 -5.22266,0.1193 z m -1.39499,-6.6353 c 0.57292,-0.32329 1.23468,-0.71039 1.47059,-0.86022 0.23591,-0.14984 0.59275,-0.34754 0.79298,-0.43935 0.20024,-0.0918 0.42803,-0.29527 0.50621,-0.45212 0.13631,-0.27348 0.25422,-5.41334 0.12418,-5.41334 -0.0307,0 -0.48768,0.26486 -1.01538,0.58859 -0.5277,0.32372 -1.63501,0.96831 -2.46069,1.4324 l -1.50122,0.84381 v 2.74591 2.74591 l 0.52083,-0.30189 c 0.28646,-0.16606 0.98958,-0.56641 1.5625,-0.8897 z m 9.30477,-4.29593 c -0.075,-0.0904 -0.75166,-0.50634 -1.50366,-0.92437 -0.75201,-0.41803 -1.79407,-1.02659 -2.3157,-1.35239 -0.52163,-0.32579 -0.97659,-0.59234 -1.01103,-0.59234 -0.1173,0 -0.0634,5.16162 0.0562,5.38516 0.0653,0.12209 0.82362,0.62305 1.68505,1.11322 0.86143,0.49018 1.59421,0.92435 1.62838,0.96482 0.0342,0.0405 0.39263,0.24785 0.79657,0.46088 l 0.73443,0.38733 0.0331,-2.639 c 0.0226,-1.80326 -0.0101,-2.69103 -0.1033,-2.80331 z m -11.41212,-2.02661 c 0.38392,-0.21065 1.02874,-0.5829 1.43293,-0.82721 0.40419,-0.24431 0.84537,-0.51077 0.98039,-0.59213 0.13503,-0.0814 0.53502,-0.29965 0.88888,-0.48509 0.69118,-0.36221 0.76254,-0.45925 0.43122,-0.58639 -0.1167,-0.0448 -0.78149,-0.42293 -1.47732,-0.84032 -0.69583,-0.4174 -1.65526,-0.96564 -2.13206,-1.21832 l -0.86691,-0.45942 -0.9148,0.52069 c -0.50314,0.28638 -1.22673,0.68893 -1.60798,0.89455 -0.38125,0.20562 -0.96891,0.54924 -1.30592,0.7636 -0.33701,0.21437 -0.68168,0.3908 -0.76593,0.39208 -0.29028,0.004 -0.15237,0.22374 0.22295,0.35457 0.20687,0.0721 0.77675,0.38082 1.26641,0.68601 0.48965,0.30519 0.91821,0.55489 0.95234,0.55489 0.0341,0 0.52085,0.27573 1.08158,0.61274 0.56073,0.33701 1.04127,0.61275 1.06785,0.61275 0.0266,0 0.36246,-0.17235 0.74637,-0.383 z m 13.7399,-0.42945 c 0.7804,-0.44684 1.78702,-1.02588 2.23691,-1.28677 0.4499,-0.26087 0.87729,-0.47431 0.94976,-0.47431 0.0725,0 0.13176,-0.0551 0.13176,-0.12255 0,-0.0674 -0.0482,-0.12255 -0.10711,-0.12255 -0.0589,0 -0.36849,-0.15165 -0.68796,-0.33701 -0.31946,-0.18535 -0.92595,-0.53002 -1.34773,-0.76593 -0.42181,-0.23591 -1.18552,-0.66602 -1.69716,-0.9558 l -0.93024,-0.52687 -0.79315,0.4209 c -0.43623,0.2315 -0.95692,0.53753 -1.1571,0.68006 -0.20017,0.14254 -0.40124,0.25916 -0.44682,0.25916 -0.0456,0 -0.36794,0.1882 -0.71637,0.41823 -0.34843,0.23003 -0.84032,0.51598 -1.09307,0.63544 -0.25276,0.11947 -0.45956,0.25116 -0.45956,0.29265 0,0.0415 0.23437,0.19855 0.52083,0.34902 0.76228,0.40042 1.24779,0.68411 1.3174,0.76976 0.0337,0.0415 0.18081,0.11267 0.32691,0.15823 0.14609,0.0456 0.40901,0.19564 0.58426,0.33348 0.28407,0.22346 1.7668,1.06885 1.89786,1.08209 0.0284,0.003 0.69018,-0.36038 1.47058,-0.80723 z m -8.7095,-5.99217 c 0.0111,-1.48671 -0.0315,-2.61789 -0.10364,-2.75275 -0.1157,-0.21619 -1.28687,-0.93857 -2.55421,-1.57545 -0.31437,-0.15798 -0.65429,-0.35918 -0.75539,-0.44712 -0.10111,-0.0879 -0.50092,-0.33025 -0.88849,-0.53848 l -0.70465,-0.37859 0.002,2.66394 c 9.8e-4,1.46518 0.0424,2.72638 0.0919,2.80268 0.0495,0.0763 0.29254,0.24174 0.54005,0.36764 0.77185,0.39264 3.32789,1.86336 3.77792,2.17378 0.23591,0.16272 0.46196,0.27612 0.50233,0.25201 0.0404,-0.0241 0.0819,-1.17956 0.0923,-2.56766 z m 2.76839,1.9096 c 0.40831,-0.24848 1.0991,-0.64122 1.53508,-0.87275 0.43599,-0.23153 0.84959,-0.46426 0.91912,-0.51719 0.0695,-0.0529 0.38837,-0.25851 0.70853,-0.45686 l 0.58211,-0.36063 v -2.6375 c 0,-1.45063 -0.0475,-2.6375 -0.10558,-2.6375 -0.24425,0 -4.4483,2.43569 -4.70447,2.72561 -0.18971,0.2147 -0.21446,0.53918 -0.21446,2.81093 v 2.56821 l 0.26864,-0.0853 c 0.14775,-0.0469 0.60271,-0.28857 1.01103,-0.53705 z" /></g></svg>
