<svg xmlns="http://www.w3.org/2000/svg" xml:space="preserve" width="251.581" height="251.249" viewBox="0 0 30.831 30.79"><path d="M61.652-153.102c-2.293-.375-4.863-1.428-6.695-2.742-1.107-.793-2.86-2.564-3.668-3.705-1.114-1.572-2.034-3.748-2.501-5.912-.425-1.97-.317-5.13.234-6.839.097-.3.27-.849.386-1.22.31-.997 1.224-2.752 1.989-3.818.799-1.114 2.599-2.9 3.713-3.683 4.59-3.227 10.636-3.653 15.748-1.11 3.312 1.649 6.086 4.685 7.393 8.092.587 1.527.745 2.102.94 3.4.736 4.923-.967 9.856-4.611 13.357-2.176 2.09-4.723 3.432-7.705 4.061-1.181.25-4.033.314-5.223.12m-1.395-6.635c.573-.323 1.235-.71 1.471-.86s.593-.348.793-.44c.2-.091.428-.295.506-.452.136-.273.254-5.413.124-5.413-.03 0-.487.265-1.015.589s-1.635.968-2.46 1.432l-1.502.844v5.492l.52-.302c.287-.166.99-.567 1.563-.89m9.305-4.296c-.075-.09-.751-.506-1.503-.924a65 65 0 0 1-2.316-1.353c-.522-.325-.977-.592-1.011-.592-.118 0-.064 5.162.056 5.385.065.122.824.623 1.685 1.114.861.49 1.594.924 1.628.964.035.04.393.248.797.461l.734.388.034-2.64c.022-1.803-.01-2.69-.104-2.803m-11.412-2.026a47 47 0 0 0 1.433-.828l.98-.592c.135-.081.535-.3.89-.485.69-.362.762-.459.43-.586-.116-.045-.781-.423-1.477-.84a58 58 0 0 0-2.132-1.219l-.867-.46-.915.521c-.503.287-1.226.69-1.608.895-.38.206-.969.55-1.306.764s-.681.39-.765.392c-.29.004-.153.223.222.354.207.072.777.381 1.267.686s.918.555.952.555.521.276 1.082.613c.56.337 1.041.613 1.068.613.026 0 .362-.173.746-.383m13.74-.43c.78-.447 1.787-1.026 2.237-1.287s.877-.474.95-.474.131-.055.131-.122c0-.068-.048-.123-.107-.123s-.368-.152-.688-.337-.926-.53-1.347-.766c-.422-.236-1.186-.666-1.698-.956l-.93-.527-.793.421c-.436.232-.957.538-1.157.68s-.401.26-.447.26-.368.188-.716.418c-.349.23-.84.516-1.093.635-.253.12-.46.251-.46.293s.234.198.52.349c.763.4 1.249.684 1.318.77.034.041.181.112.327.158.146.045.41.195.585.333.284.224 1.766 1.07 1.897 1.082.029.003.69-.36 1.47-.807m-8.71-5.992c.012-1.487-.031-2.618-.103-2.753-.116-.216-1.287-.938-2.554-1.575-.315-.158-.655-.36-.756-.447s-.5-.33-.888-.539l-.705-.378.002 2.664c.001 1.465.042 2.726.092 2.802s.293.242.54.368c.772.393 3.328 1.863 3.778 2.174.236.162.462.276.502.252s.082-1.18.093-2.568zm2.769 1.91a35 35 0 0 1 1.535-.873c.436-.232.85-.464.919-.517s.388-.259.709-.457l.582-.36v-2.638c0-1.45-.048-2.638-.106-2.638-.244 0-4.448 2.436-4.704 2.726-.19.215-.215.539-.215 2.81v2.569l.269-.085c.148-.047.603-.289 1.01-.537" style="fill:#000;stroke-width:.122549" transform="translate(-48.528 183.778)"/></svg>