<svg xmlns="http://www.w3.org/2000/svg" xml:space="preserve" width="250.611" height="251.143" viewBox="0 0 30.712 30.777"><path d="M97.054-202.461c-6.032-.693-11.027-4.758-12.898-10.497-.685-2.099-.906-4.199-.67-6.333.491-4.416 2.68-8.242 6.195-10.831.946-.697 3.016-1.807 3.79-2.033.237-.069.816-.24 1.287-.382.472-.141 1.556-.335 2.41-.431 4.568-.513 9.1 1.097 12.415 4.412 2.555 2.555 4.006 5.602 4.413 9.267.15 1.344.149 1.77-.006 3.186-.098.9-.259 1.884-.357 2.187s-.27.855-.38 1.225c-.276.922-1.178 2.691-1.935 3.795-.805 1.172-2.585 2.953-3.757 3.757-1.104.758-2.874 1.66-3.795 1.935-.37.111-.922.282-1.226.38-.453.147-3.747.585-4.025.536-.044-.008-.701-.086-1.46-.173zm5.182-6.032a12 12 0 0 1-.264-.889 72 72 0 0 0-.656-2.206c-.876-2.808-1.227-3.972-1.227-4.07 0-.053.956-.096 2.124-.096s2.155-.03 2.192-.068c.038-.037-.004-.3-.09-.582-.088-.283-.357-1.176-.598-1.985-.242-.81-.547-1.802-.68-2.206-.131-.405-.466-1.48-.743-2.39-.278-.91-.598-1.93-.713-2.267l-.208-.613-3.612-.032c-1.987-.018-3.678-.007-3.758.023-.098.038.075.553.525 1.565.37.83.84 1.894 1.046 2.366.205.472.453 1.038.551 1.257.098.22.144.454.103.521-.045.074-1.058.121-2.573.121-1.373 0-2.524.044-2.557.097s.53.702 1.253 1.44c.722.739 2.687 2.777 4.367 4.53a798 798 0 0 0 4.16 4.316c.61.621 1.127 1.186 1.15 1.256.024.07.099.126.168.126.07 0 .088-.094.04-.214" style="fill:#000;stroke-width:.122549" transform="translate(-83.395 233.062)"/></svg>