<?xml version="1.0" encoding="UTF-8" standalone="no"?>
<!-- Created with Inkscape (http://www.inkscape.org/) -->

<svg
   width="2.6105335in"
   height="2.6160769in"
   viewBox="0 0 30.712159 30.777375"
   version="1.1"
   id="svg5"
   inkscape:version="1.2 (dc2aeda, 2022-05-15)"
   xml:space="preserve"
   sodipodi:docname="poke-type-icons.svg"
   xmlns:inkscape="http://www.inkscape.org/namespaces/inkscape"
   xmlns:sodipodi="http://sodipodi.sourceforge.net/DTD/sodipodi-0.dtd"
   xmlns="http://www.w3.org/2000/svg"
   xmlns:svg="http://www.w3.org/2000/svg"><sodipodi:namedview
     id="namedview7"
     pagecolor="#505050"
     bordercolor="#eeeeee"
     borderopacity="1"
     inkscape:showpageshadow="false"
     inkscape:pageopacity="0"
     inkscape:pagecheckerboard="false"
     inkscape:deskcolor="#505050"
     inkscape:document-units="in"
     showgrid="true"
     inkscape:lockguides="false"
     inkscape:zoom="0.2489684"
     inkscape:cx="1206.9805"
     inkscape:cy="-929.83687"
     inkscape:window-width="1440"
     inkscape:window-height="900"
     inkscape:window-x="0"
     inkscape:window-y="0"
     inkscape:window-maximized="0"
     inkscape:current-layer="layer1" /><defs
     id="defs2" /><g
     inkscape:label="Layer 1"
     inkscape:groupmode="layer"
     id="layer1"
     transform="translate(-83.394827,233.06179)"><path
       id="path904"
       style="fill:#000000;stroke-width:0.122549"
       d="m 97.053969,-202.46118 c -6.03171,-0.69251 -11.02746,-4.75815 -12.89845,-10.49699 -0.68416,-2.09853 -0.90596,-4.19837 -0.66889,-6.33276 0.4905,-4.41621 2.67851,-8.24176 6.19479,-10.83105 0.94603,-0.69662 3.01582,-1.80672 3.79021,-2.0328 0.23591,-0.0689 0.81495,-0.24078 1.28677,-0.38202 0.47181,-0.14123 1.55591,-0.33525 2.40912,-0.43115 4.568211,-0.51344 9.100641,1.09709 12.415031,4.41148 2.55536,2.55536 4.00644,5.60235 4.41353,9.26759 0.14926,1.3439 0.14845,1.76984 -0.006,3.18628 -0.0981,0.89924 -0.2588,1.88315 -0.35707,2.18646 -0.0983,0.3033 -0.26932,0.85478 -0.38014,1.22549 -0.2755,0.92161 -1.17771,2.69073 -1.93525,3.79474 -0.80445,1.17238 -2.58463,2.95256 -3.75701,3.75701 -1.10401,0.75753 -2.87313,1.65975 -3.79474,1.93524 -0.37071,0.11082 -0.92218,0.28187 -1.22549,0.3801 -0.45302,0.14673 -3.747591,0.58482 -4.025171,0.53525 -0.0441,-0.008 -0.70163,-0.0857 -1.46112,-0.17287 z m 5.181611,-6.03217 c -0.0472,-0.11795 -0.16585,-0.51777 -0.26367,-0.88848 -0.0978,-0.37071 -0.39289,-1.36336 -0.65572,-2.20588 -0.87607,-2.80841 -1.22691,-3.97222 -1.22691,-4.06988 0,-0.0532 0.95588,-0.0968 2.12418,-0.0968 1.1683,0 2.15467,-0.0305 2.19194,-0.0678 0.0373,-0.0373 -0.004,-0.29922 -0.091,-0.58211 -0.0873,-0.28289 -0.35637,-1.17611 -0.59789,-1.98494 -0.24151,-0.80882 -0.547,-1.80147 -0.67886,-2.20588 -0.13186,-0.40441 -0.46665,-1.47978 -0.74398,-2.38971 -0.27734,-0.90992 -0.59789,-1.93014 -0.71235,-2.26715 l -0.2081,-0.61275 -3.612361,-0.0325 c -1.9868,-0.0179 -3.678,-0.007 -3.75821,0.0234 -0.0978,0.0375 0.0755,0.55312 0.52578,1.5644 0.3694,0.82964 0.83971,1.89446 1.04513,2.36627 0.20543,0.47181 0.45361,1.03768 0.5515,1.25749 0.0979,0.2198 0.1443,0.45417 0.10311,0.52083 -0.0454,0.0735 -1.05834,0.12119 -2.5727,0.12119 -1.37378,0 -2.52477,0.0437 -2.55775,0.097 -0.033,0.0534 0.5309,0.70134 1.25306,1.43995 0.72216,0.73861 2.68719,2.77676 4.36673,4.52921 1.67955,1.75245 3.552111,3.69469 4.161261,4.31609 0.60914,0.6214 1.12648,1.18665 1.14963,1.25613 0.0232,0.0695 0.0986,0.12631 0.16755,0.12631 0.0705,0 0.0878,-0.094 0.0396,-0.21446 z" /></g></svg>
