<svg
   viewBox="0 0 30.712 30.777"
   xmlns="http://www.w3.org/2000/svg"
  ><path
     d="M 15.355901 0.031495841 C 6.8749094 0.031495841 0 6.9075594 0 15.389551 C 0 23.871542 6.8749094 30.745452 15.355901 30.745452 C 23.836892 30.745452 30.712041 23.870542 30.712041 15.389551 C 30.712041 6.9085594 23.836892 0.031495841 15.355901 0.031495841 z M 16.018907 1.783317 L 16.018907 4.6217987 C 18.72098 4.763395 21.267535 5.857427 23.613084 8.3748463 L 22.620011 9.2513553 C 20.69116 7.1165006 18.482806 6.0369608 16.018907 5.9233977 L 16.018907 9.1328758 C 13.565712 9.0638239 11.839767 9.8621136 10.97575 10.928738 L 9.9166147 10.125231 C 10.938712 8.7072295 13.189028 8.0109971 14.666326 7.8197878 L 14.666326 1.7852318 L 16.018907 1.783317 z M 13.407093 4.7251989 L 13.669662 6.0236864 C 10.856398 6.6266922 8.8174842 7.9993855 7.4871865 10.076403 L 10.266548 11.681023 C 8.9801513 13.771027 8.8085664 15.664964 9.3002819 16.946539 L 8.0745576 17.462104 C 7.3575813 15.867943 7.8801559 13.571092 8.4532133 12.196109 L 3.2269508 9.1785921 L 3.9016856 8.0062434 L 6.3598361 9.4256039 C 7.8334986 7.1563382 10.054168 5.4977944 13.407093 4.7251989 z M 26.806765 8.0809214 L 27.484851 9.2513553 L 25.026461 10.670476 C 26.254871 13.081339 26.580996 15.833675 25.573621 19.12369 L 24.317738 18.701951 C 25.202151 15.964089 25.03295 13.511856 23.89935 11.321276 L 21.119749 12.926135 C 19.95295 10.767081 18.398591 9.6714292 17.042858 9.4564804 L 17.209208 8.1371693 C 18.948281 8.3133306 20.676501 9.9144263 21.580742 11.098199 L 26.806765 8.0809214 z M 5.1405743 11.749238 L 6.3962177 12.171217 C 5.511804 14.909079 5.6810055 17.361071 6.8146059 19.551652 L 9.5942068 17.947033 C 10.761006 20.106088 12.315365 21.201738 13.671098 21.416687 L 13.504748 22.735759 C 11.765675 22.559597 10.037694 20.958741 9.1334532 19.774968 L 3.9071907 22.792246 L 3.2293443 21.621812 L 5.6874948 20.202452 C 4.459085 17.79159 4.1331993 15.039254 5.1405743 11.749238 z M 15.311381 12.065662 A 2.0897412 2.0897412 0 0 1 15.338428 12.065902 A 2.0897412 2.0897412 0 0 0 15.338668 12.065902 A 2.0897412 2.0897412 0 0 1 17.401168 14.155449 A 2.0897412 2.0897412 0 0 1 16.585694 15.810811 L 17.401168 18.259627 L 13.221834 18.206012 L 14.045446 15.817035 A 2.0897412 2.0897412 0 0 1 13.221834 14.155449 A 2.0897412 2.0897412 0 0 1 15.311381 12.065662 z M 22.578842 13.346198 C 23.295818 14.94036 22.773483 17.237451 22.200426 18.612433 L 27.426449 21.629711 L 26.751714 22.802059 L 24.293564 21.382699 C 22.819901 23.651965 20.599231 25.310509 17.246307 26.083104 L 16.983737 24.784616 C 19.797002 24.181611 21.836155 22.808917 23.166453 20.731899 L 20.386852 19.12728 C 21.673248 17.037276 21.845073 15.143338 21.353357 13.861764 L 22.578842 13.346198 z M 19.688421 19.84821 L 20.747795 20.651716 C 19.725698 22.069717 17.475142 22.765952 15.997844 22.95716 L 15.997844 28.991716 L 14.645263 28.993631 L 14.645263 26.155149 C 11.94319 26.013552 9.3966348 24.91952 7.0510862 22.402101 L 8.0441598 21.525592 C 9.9730109 23.660447 12.181364 24.739988 14.645263 24.85355 L 14.645263 21.644072 C 17.098458 21.713122 18.824403 20.914834 19.688421 19.84821 z " /></svg>
