<?xml version="1.0" encoding="UTF-8" standalone="no"?>
<!-- Created with Inkscape (http://www.inkscape.org/) -->

<svg
   width="2.6250675in"
   height="2.625658in"
   viewBox="0 0 30.883147 30.890093"
   version="1.1"
   id="svg5"
   inkscape:version="1.2 (dc2aeda, 2022-05-15)"
   xml:space="preserve"
   sodipodi:docname="poke-type-icons.svg"
   xmlns:inkscape="http://www.inkscape.org/namespaces/inkscape"
   xmlns:sodipodi="http://sodipodi.sourceforge.net/DTD/sodipodi-0.dtd"
   xmlns="http://www.w3.org/2000/svg"
   xmlns:svg="http://www.w3.org/2000/svg"><sodipodi:namedview
     id="namedview7"
     pagecolor="#505050"
     bordercolor="#eeeeee"
     borderopacity="1"
     inkscape:showpageshadow="false"
     inkscape:pageopacity="0"
     inkscape:pagecheckerboard="false"
     inkscape:deskcolor="#505050"
     inkscape:document-units="in"
     showgrid="true"
     inkscape:lockguides="false"
     inkscape:zoom="0.2489684"
     inkscape:cx="1206.9805"
     inkscape:cy="-929.83687"
     inkscape:window-width="1440"
     inkscape:window-height="900"
     inkscape:window-x="0"
     inkscape:window-y="0"
     inkscape:window-maximized="0"
     inkscape:current-layer="layer1" /><defs
     id="defs2" /><g
     inkscape:label="Layer 1"
     inkscape:groupmode="layer"
     id="layer1"
     transform="translate(-4.3168377,30.366984)"><path
       id="path978"
       style="fill:#000000;stroke-width:0.122549"
       d="m 16.878903,0.3288 c -0.26961,-0.0971 -0.5794,-0.17743 -0.68843,-0.17845 -0.67921,-0.006 -3.7823,-1.30478 -4.82628,-2.01951 -2.4992702,-1.71107 -4.4711902,-3.9223 -5.5228402,-6.19312 -0.10925,-0.2359 -0.30377,-0.64093 -0.43226,-0.90006 -0.12849,-0.25912 -0.23362,-0.54939 -0.23362,-0.64504 0,-0.0957 -0.0484,-0.26967 -0.10751,-0.38671 -0.17118,-0.33883 -0.38252,-1.06676 -0.38453,-1.32444 -0.001,-0.13001 -0.0813,-0.45698 -0.17845,-0.72659 -0.25086,-0.69632 -0.25086,-5.06348 0,-5.7598 0.0971,-0.26961 0.17743,-0.59658 0.17845,-0.7266 0.002,-0.25767 0.21335,-0.9856 0.38453,-1.32444 0.0591,-0.11703 0.10751,-0.26929 0.10751,-0.33834 0,-0.13174 0.41354,-1.11258 0.646,-1.53219 0.0747,-0.13481 0.25112,-0.46569 0.39208,-0.7353 0.14096,-0.2696 0.42002,-0.73282 0.62013,-1.02936 0.20012,-0.29654 0.41899,-0.62496 0.48639,-0.72983 0.61998,-0.96456 2.46044,-2.67567 4.0441202,-3.7599 1.03792,-0.71059 4.13251,-2.01422 4.79396,-2.01951 0.1268,-0.001 0.45114,-0.0813 0.72075,-0.17845 0.69632,-0.25086 5.06348,-0.25086 5.7598,0 0.26961,0.0971 0.59395,0.17743 0.72075,0.17845 0.65452,0.005 3.63641,1.26496 4.79396,2.02525 1.42589,0.93653 3.42718,2.79434 4.04412,3.75416 0.0674,0.10487 0.28627,0.43329 0.48639,0.72983 0.20011,0.29654 0.47917,0.75976 0.62013,1.02936 0.14096,0.26961 0.3174,0.60049 0.39208,0.7353 0.26899,0.48555 0.646,1.41032 0.646,1.58457 0,0.0979 0.0551,0.21201 0.12255,0.25366 0.0674,0.0417 0.12255,0.23468 0.12255,0.42893 0,0.19425 0.0551,0.38726 0.12255,0.42892 0.0674,0.0417 0.12255,0.23099 0.12255,0.42074 0,0.18976 0.0827,0.57947 0.18382,0.86602 0.13834,0.39209 0.18383,1.08956 0.18383,2.81863 0,1.72906 -0.0455,2.42654 -0.18383,2.81863 -0.1011,0.28655 -0.18382,0.67626 -0.18382,0.86601 0,0.18976 -0.0551,0.37909 -0.12255,0.42075 -0.0674,0.0417 -0.12255,0.23467 -0.12255,0.42892 0,0.19425 -0.0551,0.38727 -0.12255,0.42892 -0.0674,0.0417 -0.12255,0.15581 -0.12255,0.25367 0,0.17425 -0.37701,1.09902 -0.646,1.58457 -0.0747,0.1348 -0.25112,0.46569 -0.39208,0.73529 -0.14096,0.26961 -0.42002,0.73282 -0.62013,1.02937 -0.20012,0.29654 -0.41899,0.62496 -0.48639,0.72982 -0.20386,0.31716 -1.06388,1.26845 -1.71485,1.89683 -1.83119,1.76765 -4.16754,3.08515 -6.61849,3.73224 -0.26961,0.0712 -0.78605,0.21644 -1.14765,0.32279 -0.89726,0.2639 -5.10977,0.26823 -5.83764,0.006 z m 4.71814,-6.08104 c 0.3033,-0.0702 0.71691,-0.18338 0.91911,-0.25157 0.63528,-0.21423 2.38971,-1.10871 2.38971,-1.21837 0,-0.0576 0.0792,-0.1048 0.176,-0.1048 0.0968,0 0.67276,-0.49865 1.2799,-1.10811 0.95178,-0.95541 1.18781,-1.28049 1.71287,-2.35907 0.7919,-1.62673 1.01164,-2.52269 1.01315,-4.13086 10e-4,-1.60199 -0.21662,-2.49459 -1.0058,-4.11588 -0.51796,-1.06412 -0.76113,-1.39784 -1.74882,-2.40008 -1.00951,-1.02439 -1.2927,-1.23429 -2.35955,-1.74892 -1.83573,-0.88553 -1.85647,-0.89191 -3.35697,-1.0335 -1.42455,-0.13441 -3.18773,0.0905 -4.03927,0.51534 -0.22558,0.11253 -0.4844,0.20461 -0.57514,0.20461 -0.0908,0 -0.165,0.0448 -0.165,0.0997 0,0.0548 -0.1942,0.17588 -0.43157,0.26901 -0.23736,0.0931 -0.52164,0.26887 -0.63173,0.39052 -0.1101,0.12166 -0.26883,0.22119 -0.35275,0.22119 -0.19902,0 -2.26042,2.0614 -2.26042,2.26042 0,0.0839 -0.0995,0.24265 -0.22119,0.35274 -0.12165,0.1101 -0.29738,0.39438 -0.39052,0.63174 -0.0931,0.23736 -0.21418,0.43157 -0.26901,0.43157 -0.0548,0 -0.0997,0.0724 -0.0997,0.16081 0,0.0884 -0.1103,0.38908 -0.2451,0.6681 -0.1348,0.27901 -0.2451,0.62387 -0.2451,0.76637 0,0.14249 -0.0594,0.36997 -0.13189,0.50551 -0.16215,0.30298 -0.17333,3.25199 -0.0139,3.66727 0.063,0.16397 0.18123,0.51871 0.26286,0.78831 0.0816,0.26961 0.39531,0.99652 0.69709,1.61535 0.47001,0.96384 0.71892,1.29354 1.73613,2.29964 0.96908,0.95849 1.39029,1.27674 2.2904,1.73052 0.60662,0.30582 1.40625,0.64155 1.77696,0.74606 1.31634,0.37113 3.06055,0.43066 4.28922,0.14641 z m -2.87991,-3.25017 c -0.50297,-0.11052 -1.60155,-0.4622 -1.83823,-0.58846 -0.67259,-0.35879 -1.89951,-1.38687 -1.89951,-1.59166 0,-0.0296 -0.15635,-0.29087 -0.34744,-0.58071 -0.85597,-1.29829 -1.08131,-3.47732 -0.53861,-5.20834 0.51059,-1.6286 2.06567,-3.14705 3.70468,-3.6174 1.32743,-0.38095 1.54031,-0.40933 2.38824,-0.31847 1.78696,0.1915 3.08082,0.82561 4.08647,2.00272 0.85514,1.00095 1.03349,1.37287 1.37327,2.86388 0.30654,1.34513 -0.22518,3.96726 -0.9217,4.54532 -0.10235,0.0849 -0.18609,0.21922 -0.18609,0.29839 0,0.17929 -0.88131,1.05153 -1.06246,1.05153 -0.0732,0 -0.2022,0.0834 -0.28676,0.18525 -0.54231,0.65344 -3.2338,1.23 -4.47186,0.95795 z" /></g></svg>
