<?xml version="1.0" encoding="UTF-8" standalone="no"?>
<!-- Created with Inkscape (http://www.inkscape.org/) -->

<svg
   width="2.6208861in"
   height="2.619029in"
   viewBox="0 0 30.833954 30.812105"
   version="1.1"
   id="svg5"
   inkscape:version="1.2 (dc2aeda, 2022-05-15)"
   xml:space="preserve"
   sodipodi:docname="poke-type-icons.svg"
   xmlns:inkscape="http://www.inkscape.org/namespaces/inkscape"
   xmlns:sodipodi="http://sodipodi.sourceforge.net/DTD/sodipodi-0.dtd"
   xmlns="http://www.w3.org/2000/svg"
   xmlns:svg="http://www.w3.org/2000/svg"><sodipodi:namedview
     id="namedview7"
     pagecolor="#505050"
     bordercolor="#eeeeee"
     borderopacity="1"
     inkscape:showpageshadow="false"
     inkscape:pageopacity="0"
     inkscape:pagecheckerboard="false"
     inkscape:deskcolor="#505050"
     inkscape:document-units="in"
     showgrid="true"
     inkscape:lockguides="false"
     inkscape:zoom="0.2489684"
     inkscape:cx="1206.9805"
     inkscape:cy="-929.83687"
     inkscape:window-width="1440"
     inkscape:window-height="900"
     inkscape:window-x="0"
     inkscape:window-y="0"
     inkscape:window-maximized="0"
     inkscape:current-layer="layer1" /><defs
     id="defs2" /><g
     inkscape:label="Layer 1"
     inkscape:groupmode="layer"
     id="layer1"
     transform="translate(-148.61833,36.35378)"><path
       id="path1000"
       style="fill:#000000;stroke-width:0.122549"
       d="m 161.287,-5.7153422 c -0.2022,-0.0875 -0.5016,-0.16158 -0.66532,-0.16462 -0.31196,-0.006 -1.02308,-0.20502 -1.38571,-0.38822 -0.11704,-0.0591 -0.29702,-0.1075 -0.39995,-0.1075 -0.10293,0 -0.2829,-0.0484 -0.39995,-0.10747 -0.11703,-0.0591 -0.70912,-0.34743 -1.31573,-0.64072 -1.70915,-0.82633 -2.74459,-1.58829 -4.17145,-3.0696798 -1.25233,-1.30018 -1.8707,-2.11482 -2.4508,-3.2287 -0.1404,-0.26961 -0.31446,-0.60049 -0.38677,-0.7353 -0.0723,-0.1348 -0.19953,-0.41054 -0.28265,-0.61274 -0.0831,-0.20221 -0.19985,-0.46341 -0.2594,-0.58045 -0.0595,-0.11704 -0.10825,-0.32384 -0.10825,-0.45956 0,-0.13571 -0.0552,-0.24676 -0.12255,-0.24676 -0.0674,0 -0.12255,-0.16218 -0.12255,-0.36041 0,-0.19823 -0.0493,-0.3909 -0.1096,-0.42815 -0.20616,-0.12741 -0.48799,-2.50309 -0.48799,-4.1134 0,-1.6103 0.28183,-3.98598 0.48799,-4.11339 0.0603,-0.0373 0.1096,-0.2031 0.1096,-0.36854 0,-0.16544 0.0487,-0.39656 0.10825,-0.5136 0.0596,-0.11704 0.16213,-0.35067 0.22798,-0.51917 0.23116,-0.59159 1.19293,-2.51613 1.43918,-2.8799 1.18276,-1.74726 3.40586,-3.96885 4.59714,-4.59405 0.16851,-0.0884 0.33395,-0.19841 0.36765,-0.24441 0.0633,-0.0864 2.07752,-1.07075 2.51226,-1.22778 0.1348,-0.0487 0.46568,-0.15496 0.73529,-0.23616 0.26961,-0.0812 0.60049,-0.19365 0.73529,-0.24991 1.09923,-0.4587 5.98794,-0.61669 7.04657,-0.22773 0.30331,0.11144 0.8206,0.23939 1.14955,0.28432 0.32894,0.0449 0.74255,0.13926 0.91912,0.2096 0.17656,0.0703 0.43133,0.16852 0.56614,0.21816 0.44921,0.16541 2.45007,1.14463 2.51225,1.2295 0.0337,0.046 0.19914,0.15598 0.36765,0.24441 1.19104,0.62507 3.37138,2.80301 4.60382,4.59875 0.2463,0.35887 1.18601,2.24509 1.43242,2.8752 0.0659,0.1685 0.16851,0.40213 0.22806,0.51917 0.0595,0.11704 0.10825,0.34816 0.10825,0.5136 0,0.16544 0.0551,0.33488 0.12255,0.37654 0.0674,0.0417 0.12255,0.24155 0.12255,0.44421 0,0.20266 0.0608,0.4821 0.13513,0.62098 0.39044,0.72954 0.15741,6.88905 -0.27063,7.1536 -0.0603,0.0373 -0.1096,0.2031 -0.1096,0.36854 0,0.16544 -0.0487,0.39656 -0.10825,0.5136 -0.0596,0.11704 -0.16213,0.35066 -0.22798,0.51917 -0.22897,0.58596 -1.19186,2.51457 -1.43806,2.88037 -0.60271,0.89545 -1.02972,1.41319 -1.95508,2.37039 -1.4355,1.4849298 -2.46916,2.2449298 -4.17504,3.0696798 -0.60662,0.29329 -1.19871,0.58161 -1.31574,0.64072 -0.11705,0.0591 -0.29702,0.10747 -0.39995,0.10747 -0.10293,0 -0.28291,0.0484 -0.39995,0.1075 -0.35521,0.17946 -1.03701,0.36235 -1.68338,0.45158 -0.33701,0.0465 -0.6679,0.12704 -0.7353,0.17894 -0.21756,0.1675 -4.73811,0.0993 -5.14706,-0.0777 z m -0.98039,-6.2040198 c 0.44365,-0.15259 1.14718,-0.78568 1.2956,-1.16588 0.073,-0.18703 0.20951,-0.27574 0.42429,-0.27574 0.18147,0 0.28406,0.0527 0.24032,0.12348 -0.042,0.0679 0.19603,0.40896 0.52888,0.75789 0.59471,0.62343 0.61661,0.63392 1.26394,0.60535 0.58968,-0.026 0.71334,-0.0825 1.17957,-0.53832 0.28646,-0.28008 0.52083,-0.60804 0.52083,-0.72882 0,-0.33808 0.59037,-0.29245 0.72646,0.0562 0.27331,0.70011 1.74381,1.56942 2.22194,1.31354 0.12197,-0.0653 0.32813,-0.11869 0.45815,-0.11869 0.36876,0 1.3404,-1.11793 1.45237,-1.67105 0.13177,-0.65085 0.0946,-1.63522 -0.0679,-1.79768 -0.33102,-0.33102 -0.13826,-0.76175 0.72364,-1.61705 0.47181,-0.4682 0.85784,-0.91314 0.85784,-0.98875 0,-0.0756 0.11029,-0.2373 0.2451,-0.35929 0.1348,-0.122 0.2451,-0.28923 0.2451,-0.37164 0,-0.0824 0.0813,-0.21726 0.18057,-0.29969 0.0993,-0.0824 0.21682,-0.35113 0.26108,-0.59711 0.0443,-0.24599 0.12193,-0.5024 0.17255,-0.5698 0.35803,-0.47667 0.36386,-3.42145 0.007,-3.77783 -0.0723,-0.0723 -0.13148,-0.22771 -0.13148,-0.34533 0,-0.11762 -0.18872,-0.58912 -0.41935,-1.04779 -0.31998,-0.6363 -0.69389,-1.09535 -1.57769,-1.93689 -1.36377,-1.29857 -1.62361,-1.49111 -2.59855,-1.92544 -3.09298,-1.37791 -6.26282,-1.33274 -9.20112,0.13113 -0.40987,0.2042 -0.81644,0.45708 -0.90348,0.56196 -0.087,0.10487 -0.22153,0.19068 -0.29886,0.19068 -0.0773,0 -0.64446,0.51011 -1.2603,1.13358 -1.0633,1.07648 -1.87791,2.3128 -1.87791,2.85008 0,0.1054 -0.0873,0.32486 -0.19398,0.48769 -0.10907,0.16645 -0.16054,0.40147 -0.11757,0.53685 0.042,0.13243 0.019,0.27625 -0.0511,0.3196 -0.14499,0.0896 -0.17613,1.6906 -0.0356,1.83111 0.0505,0.0505 0.0955,0.18382 0.0999,0.29616 0.0245,0.62204 0.63715,2.09067 1.06932,2.56331 0.13867,0.15166 0.20244,0.27574 0.14173,0.27574 -0.0607,0 0.3137,0.42739 0.83205,0.94975 0.95232,0.95972 1.10723,1.30055 0.7841,1.7253 -0.18244,0.23981 -0.15062,1.67441 0.0459,2.06948 0.2651,0.53295 1.12602,1.38272 1.40295,1.3848 0.13763,9.8e-4 0.33295,0.0556 0.43405,0.12126 0.1011,0.0657 0.26654,0.0867 0.36765,0.0469 0.1011,-0.0399 0.34926,-0.12942 0.55147,-0.19897 z m 2.69608,-5.00367 c -1.28489,-0.18072 -1.69212,-0.30567 -2.71113,-0.83185 -2.49218,-1.28687 -3.45342,-3.69154 -2.48931,-6.22734 0.0725,-0.19079 0.11724,-0.34689 0.0993,-0.34689 -0.0179,0 0.38389,-0.42739 0.89288,-0.94976 0.50898,-0.52236 0.99377,-0.94975 1.07731,-0.94975 0.0835,0 0.29828,-0.10191 0.47719,-0.22646 0.1789,-0.12455 0.46316,-0.26495 0.63166,-0.31199 0.16851,-0.047 0.60968,-0.17546 0.98039,-0.28538 0.85163,-0.25251 3.1288,-0.28278 3.98285,-0.0529 1.64261,0.44206 2.24674,0.76531 3.23105,1.7288 1.10087,1.07758 1.48503,1.93852 1.4864,3.3312 0.002,1.84067 -1.02756,3.35313 -2.93952,4.31898 -1.46779,0.74148 -3.13782,1.02578 -4.71911,0.80338 z" /></g></svg>
