<?xml version="1.0" encoding="UTF-8" standalone="no"?>
<!-- Created with Inkscape (http://www.inkscape.org/) -->

<svg
   width="2.6148086in"
   height="2.6182039in"
   viewBox="0 0 30.762454 30.802397"
   version="1.1"
   id="svg5"
   inkscape:version="1.2 (dc2aeda, 2022-05-15)"
   xml:space="preserve"
   sodipodi:docname="poke-type-icons.svg"
   xmlns:inkscape="http://www.inkscape.org/namespaces/inkscape"
   xmlns:sodipodi="http://sodipodi.sourceforge.net/DTD/sodipodi-0.dtd"
   xmlns="http://www.w3.org/2000/svg"
   xmlns:svg="http://www.w3.org/2000/svg"><sodipodi:namedview
     id="namedview7"
     pagecolor="#505050"
     bordercolor="#eeeeee"
     borderopacity="1"
     inkscape:showpageshadow="false"
     inkscape:pageopacity="0"
     inkscape:pagecheckerboard="false"
     inkscape:deskcolor="#505050"
     inkscape:document-units="in"
     showgrid="true"
     inkscape:lockguides="false"
     inkscape:zoom="0.2489684"
     inkscape:cx="1206.9805"
     inkscape:cy="-929.83687"
     inkscape:window-width="1440"
     inkscape:window-height="900"
     inkscape:window-x="0"
     inkscape:window-y="0"
     inkscape:window-maximized="0"
     inkscape:current-layer="layer1" /><defs
     id="defs2" /><g
     inkscape:label="Layer 1"
     inkscape:groupmode="layer"
     id="layer1"
     transform="translate(-48.350688,77.613725)"><path
       id="path908"
       style="fill:#000000;stroke-width:0.122549"
       d="m 62.386712,-46.838031 c -0.0316,-0.0316 -0.35986,-0.0832 -0.72943,-0.11467 -0.36957,-0.0315 -0.99929,-0.14664 -1.39938,-0.256 -0.40009,-0.10935 -0.89288,-0.24231 -1.09509,-0.29547 -2.75633,-0.72462 -6.11218,-3.1938 -8.02707,-5.90618 -1.32316,-1.8742 -2.38539,-4.52246 -2.64671,-6.59848 -0.61567,-4.89126 0.83219,-9.35139 4.17117,-12.84922 2.99197,-3.13432 7.15061,-4.87499 11.34657,-4.74931 2.0696,0.062 2.67533,0.16425 4.59232,0.77535 4.32396,1.37837 8.27811,5.24592 9.62117,9.41042 0.1519,0.47101 0.31802,0.96668 0.36916,1.10149 0.38511,1.0152 0.53301,2.17558 0.52328,4.10539 -0.0119,2.35182 -0.11369,2.93777 -0.9265,5.33088 -0.66146,1.94754 -1.86109,3.79487 -3.58157,5.51534 -1.76766,1.76766 -3.8778,3.11418 -5.76044,3.67584 -0.40442,0.12065 -1.05451,0.32296 -1.44466,0.44958 -0.39015,0.12662 -1.05191,0.26196 -1.47059,0.30077 -1.09868,0.10184 -3.47472,0.17178 -3.54223,0.10427 z m 3.13995,-6.42229 c 0.20699,-0.0628 0.62451,-0.1846 0.92782,-0.27057 0.73357,-0.20793 1.83823,-0.71077 1.83823,-0.83676 0,-0.0554 -0.2068,-0.0413 -0.45955,0.0313 -0.63396,0.18207 -4.4422,0.25908 -4.60809,0.0932 -0.0706,-0.0706 -0.24854,-0.12843 -0.39533,-0.12843 -0.28875,0 -0.8445,-0.20906 -1.86534,-0.70167 -0.70804,-0.34167 -1.86286,-1.30989 -1.86286,-1.56184 0,-0.0866 -0.0879,-0.23044 -0.19541,-0.31964 -0.357,-0.29628 -0.73404,-1.20977 -1.15074,-2.78801 -0.21671,-0.82082 -0.12718,-3.12907 0.15278,-3.93869 0.33595,-0.97156 0.54961,-1.41872 0.76219,-1.59514 0.10234,-0.0849 0.18608,-0.21869 0.18608,-0.29723 0,-0.22356 1.11125,-1.23787 1.65441,-1.51008 1.20641,-0.6046 1.4727,-0.6659 3.18628,-0.73348 1.16871,-0.0461 1.46215,-0.0156 2.20588,0.22949 1.44119,0.47487 2.58793,1.43641 3.04652,2.55452 0.12441,0.30331 0.27567,0.64723 0.33616,0.76427 0.15184,0.29382 0.14078,3.12379 -0.0126,3.21857 -0.0674,0.0417 -0.12255,0.20181 -0.12255,0.35589 0,0.15408 -0.1103,0.37996 -0.2451,0.50196 -0.1348,0.12199 -0.2451,0.28566 -0.2451,0.36371 0,0.17354 -0.63825,0.8005 -0.81492,0.8005 -0.0701,0 -0.2273,0.1103 -0.34929,0.2451 -0.122,0.1348 -0.34788,0.2451 -0.50196,0.2451 -0.15408,0 -0.31423,0.0551 -0.35589,0.12255 -0.0419,0.0678 -0.59495,0.12255 -1.23679,0.12255 -0.98545,0 -1.24849,-0.0447 -1.73909,-0.29543 -1.25535,-0.64161 -1.8648,-1.67664 -1.8648,-3.16702 0,-1.50621 0.37933,-2.00814 1.89951,-2.51335 0.74706,-0.24829 1.52687,-0.0961 2.19202,0.4279 0.32256,0.25409 0.34778,0.33732 0.36077,1.19035 0.013,0.85479 -0.0103,0.94246 -0.34259,1.28931 -0.49388,0.5155 -1.11214,0.5151 -1.6647,-0.001 -0.26687,-0.24929 -0.44031,-0.33245 -0.52233,-0.25044 -0.19082,0.19082 0.62727,0.94632 1.25741,1.1612 0.50526,0.17229 0.57724,0.16918 0.9804,-0.0425 0.2393,-0.12562 0.52898,-0.25809 0.64372,-0.29439 0.27931,-0.0883 0.73552,-1.10861 0.80397,-1.79804 0.0802,-0.80761 -0.66457,-2.32406 -1.1415,-2.32406 -0.0811,0 -0.21875,-0.0859 -0.30589,-0.19091 -0.25514,-0.30741 -0.95771,-0.54439 -1.61401,-0.54439 -0.72177,0 -1.85258,0.30566 -2.06133,0.55719 -0.0813,0.098 -0.2123,0.17811 -0.29112,0.17811 -0.28019,0 -1.14324,1.05421 -1.52367,1.86115 -0.31427,0.6666 -0.38635,0.97371 -0.38635,1.64625 0,0.9056 0.36042,2.13925 0.74987,2.56668 0.12679,0.13914 0.23052,0.30718 0.23052,0.3734 0,0.15329 0.86607,1.00265 1.24455,1.22054 0.83104,0.47843 1.70948,0.82633 2.37065,0.93886 0.33701,0.0574 0.78546,0.13486 0.99655,0.1722 0.21929,0.0388 0.41938,0.0103 0.4668,-0.0664 0.0456,-0.0738 0.2873,-0.13427 0.53703,-0.13427 0.46644,0 1.21228,-0.23959 2.28884,-0.73528 0.61523,-0.28327 2.1446,-1.64649 2.1446,-1.91162 0,-0.0779 0.0812,-0.20909 0.18042,-0.29144 0.20749,-0.17221 0.79998,-1.41622 0.79998,-1.67966 0,-0.0971 0.0904,-0.45295 0.20084,-0.79069 0.2201,-0.67291 0.17965,-1.93897 -0.0886,-2.77434 -0.35496,-1.10525 -0.65728,-1.82293 -0.86681,-2.05771 -0.12418,-0.13915 -0.22579,-0.30344 -0.22579,-0.36509 0,-0.14883 -1.9839,-2.13926 -2.13225,-2.13926 -0.0636,0 -0.20293,-0.079 -0.30965,-0.17561 -0.28466,-0.25762 -1.8223,-0.98183 -2.46006,-1.15868 -0.30331,-0.0841 -0.72998,-0.20763 -0.94815,-0.27451 -0.21818,-0.0669 -1.00093,-0.1216 -1.73945,-0.1216 -1.65467,0 -3.06529,0.39209 -4.21317,1.17106 -0.25468,0.17283 -0.50081,0.31424 -0.54696,0.31424 -0.14489,0 -2.11109,2.00946 -2.11109,2.15753 0,0.0775 -0.0816,0.20859 -0.18128,0.29134 -0.21677,0.1799 -0.55402,0.82936 -0.55402,1.06691 0,0.0931 -0.0825,0.29525 -0.18338,0.44918 -0.2432,0.37118 -0.4458,1.29173 -0.51639,2.34631 -0.0316,0.47182 -0.10448,0.91484 -0.16201,0.9845 -0.0583,0.0705 -0.0542,0.20629 0.009,0.30637 0.0625,0.0988 0.11451,0.43669 0.11554,0.75077 0.002,0.74124 0.63753,2.67714 1.10597,3.37123 0.20157,0.29868 0.3665,0.58393 0.3665,0.63392 0,0.13815 1.78459,1.85762 1.92798,1.85762 0.0689,0 0.19494,0.0839 0.28,0.18636 0.18606,0.22418 1.70316,0.94236 2.3876,1.13026 1.23232,0.3383 1.52731,0.39907 1.93714,0.39907 0.24096,0 0.47219,0.0551 0.51385,0.12255 0.0955,0.15448 1.32952,0.16008 1.82953,0.008 z" /></g></svg>
