<?xml version="1.0" encoding="UTF-8" standalone="no"?>
<svg
   xml:space="preserve"
   width="250.293"
   height="250.421"
   viewBox="0 0 30.673 30.689"
   version="1.1"
   id="svg213"
   sodipodi:docname="rock.svg"
   inkscape:version="1.2 (dc2aeda, 2022-05-15)"
   xmlns:inkscape="http://www.inkscape.org/namespaces/inkscape"
   xmlns:sodipodi="http://sodipodi.sourceforge.net/DTD/sodipodi-0.dtd"
   xmlns="http://www.w3.org/2000/svg"
   xmlns:svg="http://www.w3.org/2000/svg"><defs
     id="defs217" /><sodipodi:namedview
     id="namedview215"
     pagecolor="#505050"
     bordercolor="#eeeeee"
     borderopacity="1"
     inkscape:showpageshadow="0"
     inkscape:pageopacity="0"
     inkscape:pagecheckerboard="0"
     inkscape:deskcolor="#505050"
     showgrid="false"
     inkscape:zoom="1.4836046"
     inkscape:cx="68.077436"
     inkscape:cy="50.215534"
     inkscape:window-width="1440"
     inkscape:window-height="900"
     inkscape:window-x="0"
     inkscape:window-y="0"
     inkscape:window-maximized="0"
     inkscape:current-layer="svg213" /><path
     id="path379-1"
     style="fill:#000000;fill-opacity:1;stroke-width:0.00883083;stroke-linecap:round;stroke-linejoin:round;stroke-miterlimit:500"
     d="M 15.336501,0.05535747 C 6.8924585,0.055319 0.04719994,6.9005775 0.04723834,15.34462 0.04733223,23.788569 6.8925521,30.633681 15.336501,30.633643 23.780449,30.633681 30.625668,23.788568 30.625762,15.34462 30.6258,6.9005782 23.780543,0.05531991 15.336501,0.05535747 Z m -2.89332,8.08540293 8.707247,0.018191 -2.852516,7.3528916 -9.0860206,5.966705 -3.1659683,-1.086492 -0.6277715,-4.701117 z m 10.540872,0.3073423 2.232256,7.0530553 -3.09841,3.536945 -2.025026,-3.012568 z m -4.292995,9.0959483 c 0.152,0.005 2.065182,2.685099 2.125182,2.975098 l -3.057887,3.607571 -6.077436,-1.929422 z"
     sodipodi:nodetypes="cccccccccccccccccccccc" /></svg>
