<?xml version="1.0" encoding="UTF-8" standalone="no"?>
<!-- Created with Inkscape (http://www.inkscape.org/) -->

<svg
   width="2.6072197in"
   height="2.608557in"
   viewBox="0 0 30.673173 30.688905"
   version="1.1"
   id="svg5"
   inkscape:version="1.2 (dc2aeda, 2022-05-15)"
   xml:space="preserve"
   sodipodi:docname="poke-type-icons.svg"
   xmlns:inkscape="http://www.inkscape.org/namespaces/inkscape"
   xmlns:sodipodi="http://sodipodi.sourceforge.net/DTD/sodipodi-0.dtd"
   xmlns="http://www.w3.org/2000/svg"
   xmlns:svg="http://www.w3.org/2000/svg"><sodipodi:namedview
     id="namedview7"
     pagecolor="#505050"
     bordercolor="#eeeeee"
     borderopacity="1"
     inkscape:showpageshadow="false"
     inkscape:pageopacity="0"
     inkscape:pagecheckerboard="false"
     inkscape:deskcolor="#505050"
     inkscape:document-units="in"
     showgrid="true"
     inkscape:lockguides="false"
     inkscape:zoom="0.2489684"
     inkscape:cx="1206.9805"
     inkscape:cy="-929.83687"
     inkscape:window-width="1440"
     inkscape:window-height="900"
     inkscape:window-x="0"
     inkscape:window-y="0"
     inkscape:window-maximized="0"
     inkscape:current-layer="layer1" /><defs
     id="defs2" /><g
     inkscape:label="Layer 1"
     inkscape:groupmode="layer"
     id="layer1"
     transform="translate(-211.04147,233.74498)"><path
       id="path970"
       style="fill:#000000;fill-opacity:1;stroke-width:0.122549"
       d="m 224.69896,-203.16298 c -6.99423,-0.76357 -12.62661,-6.24594 -13.52461,-13.1644 -0.84245,-6.49058 2.37601,-12.72832 8.08856,-15.6765 6.74559,-3.48132 14.87532,-1.61536 19.45573,4.46554 1.42582,1.89291 2.55701,4.67849 2.8606,7.04429 0.56187,4.37846 -0.63128,8.49614 -3.46222,11.94853 -2.34083,2.8547 -6.04982,4.89815 -9.66293,5.32377 -1.73884,0.20483 -2.33213,0.21412 -3.75513,0.0588 z m 5.67076,-8.26857 c 0.81545,-0.96534 1.43692,-1.80743 1.41452,-1.91669 -0.0595,-0.29015 -1.89973,-2.84816 -2.05224,-2.85269 -0.0723,-0.002 -0.48587,0.24241 -0.91912,0.54345 -0.96035,0.66731 -0.67668,0.47675 -3.48379,2.34037 -1.28064,0.85021 -2.39877,1.61324 -2.48475,1.69564 -0.12444,0.11924 0.0631,0.21695 0.91911,0.47892 0.5915,0.181 1.81993,0.57459 2.72986,0.87464 0.90992,0.30005 1.8271,0.54838 2.03817,0.55186 0.34538,0.006 0.52925,-0.16591 1.83824,-1.7155 z m -5.53339,-3.78607 c 4.29732,-2.87165 4.39631,-2.94694 4.6323,-3.52328 0.13262,-0.32391 0.34464,-0.8227 0.47113,-1.10843 0.12651,-0.28572 0.23002,-0.55312 0.23002,-0.59422 0,-0.0411 0.0794,-0.2485 0.17646,-0.4609 0.28909,-0.63269 1.29413,-3.23584 1.29413,-3.35193 0,-0.0591 0.11029,-0.32375 0.24509,-0.58816 0.13481,-0.26441 0.2451,-0.55341 0.2451,-0.64222 0,-0.13078 -0.82021,-0.15921 -4.31358,-0.14952 l -4.31358,0.012 -0.29753,0.32862 c -0.16365,0.18074 -0.71842,0.76979 -1.23283,1.30901 -0.5144,0.53921 -1.48628,1.5814 -2.15971,2.31596 -0.67344,0.73457 -1.70776,1.83751 -2.29849,2.45098 -0.96544,1.00262 -1.06738,1.15259 -1.00808,1.48306 0.0363,0.2022 0.11646,0.80882 0.17815,1.34804 0.32831,2.86956 0.42566,3.16407 1.08417,3.27985 0.35625,0.0626 1.33097,0.39202 1.92276,0.64975 0.2022,0.0881 0.45443,0.16364 0.5605,0.16795 0.10606,0.004 2.16887,-1.31262 4.58399,-2.92652 z m 10.41923,-1.83122 c 0.47182,-0.54913 0.877,-1.08707 0.90041,-1.19543 0.0234,-0.10836 -0.10211,-0.6451 -0.27893,-1.19276 -0.55152,-1.70812 -1.15888,-3.65605 -1.41859,-4.54966 -0.31448,-1.08208 -0.44556,-1.31235 -0.55615,-0.97696 -0.0438,0.13291 -0.2401,0.65527 -0.43616,1.16078 -0.19608,0.50552 -0.3562,0.9591 -0.35585,1.00796 0,0.0489 -0.16478,0.45006 -0.36698,0.89155 -0.20221,0.44149 -0.36765,0.85722 -0.36765,0.92385 0,0.0666 -0.0522,0.2169 -0.11599,0.33394 -0.0638,0.11704 -0.25748,0.59883 -0.43042,1.07064 -0.17294,0.47182 -0.39648,1.01397 -0.49675,1.20479 -0.10028,0.19081 -0.18233,0.44528 -0.18233,0.56548 0,0.1202 0.45187,0.86625 1.00415,1.6579 l 1.00417,1.43935 0.61961,-0.67151 c 0.34079,-0.36934 1.00565,-1.1208 1.47746,-1.66992 z"
       inkscape:export-filename="../path970.svg"
       inkscape:export-xdpi="96"
       inkscape:export-ydpi="96" /></g></svg>
