<svg xmlns="http://www.w3.org/2000/svg" xml:space="preserve" width="250.293" height="250.421" viewBox="0 0 30.673 30.689"><path d="M224.699-203.163c-6.994-.764-12.627-6.246-13.525-13.164-.842-6.491 2.376-12.729 8.089-15.677 6.746-3.481 14.875-1.615 19.456 4.466 1.425 1.893 2.557 4.678 2.86 7.044.562 4.378-.631 8.496-3.462 11.948-2.34 2.855-6.05 4.899-9.663 5.324-1.739.205-2.332.214-3.755.059m5.67-8.269c.816-.965 1.438-1.807 1.415-1.916-.06-.29-1.9-2.848-2.052-2.853-.072-.002-.486.242-.92.544-.96.667-.676.476-3.483 2.34-1.28.85-2.399 1.613-2.485 1.696-.124.119.063.216.92.478.59.181 1.82.575 2.73.875s1.826.548 2.037.552c.346.006.53-.166 1.839-1.716m-5.533-3.786c4.298-2.871 4.397-2.947 4.633-3.523.132-.324.344-.823.47-1.108.127-.286.23-.553.23-.595 0-.04.08-.248.177-.46.29-.633 1.294-3.236 1.294-3.352 0-.06.11-.324.245-.589s.246-.553.246-.642c0-.13-.82-.159-4.314-.15l-4.314.013-.297.328c-.164.181-.719.77-1.233 1.31-.514.539-1.486 1.58-2.16 2.315a167 167 0 0 1-2.298 2.451c-.966 1.003-1.068 1.153-1.008 1.483.036.203.116.81.178 1.348.328 2.87.426 3.164 1.084 3.28.356.063 1.331.392 1.923.65.202.088.454.164.56.168s2.17-1.313 4.584-2.927m10.42-1.83c.471-.55.877-1.088.9-1.196.023-.109-.102-.645-.279-1.193a206 206 0 0 1-1.419-4.55c-.314-1.082-.445-1.312-.556-.977-.043.133-.24.656-.436 1.161-.196.506-.356.96-.356 1.008s-.164.45-.367.892c-.202.441-.367.857-.367.923a.9.9 0 0 1-.116.334c-.064.117-.258.6-.43 1.071a14 14 0 0 1-.498 1.205c-.1.19-.182.445-.182.565s.452.867 1.004 1.658l1.004 1.44.62-.672c.34-.37 1.006-1.12 1.478-1.67" style="fill:#000;fill-opacity:1;stroke-width:.122549" transform="translate(-211.041 233.745)"/></svg>