<?xml version="1.0" encoding="UTF-8" standalone="no"?>
<!-- Created with Inkscape (http://www.inkscape.org/) -->

<svg
   width="2.6250005in"
   height="2.6249995in"
   viewBox="0 0 30.882359 30.882346"
   version="1.1"
   id="svg5"
   inkscape:version="1.2 (dc2aeda, 2022-05-15)"
   xml:space="preserve"
   sodipodi:docname="poke-type-icons.svg"
   xmlns:inkscape="http://www.inkscape.org/namespaces/inkscape"
   xmlns:sodipodi="http://sodipodi.sourceforge.net/DTD/sodipodi-0.dtd"
   xmlns="http://www.w3.org/2000/svg"
   xmlns:svg="http://www.w3.org/2000/svg"><sodipodi:namedview
     id="namedview7"
     pagecolor="#505050"
     bordercolor="#eeeeee"
     borderopacity="1"
     inkscape:showpageshadow="false"
     inkscape:pageopacity="0"
     inkscape:pagecheckerboard="false"
     inkscape:deskcolor="#505050"
     inkscape:document-units="in"
     showgrid="true"
     inkscape:lockguides="false"
     inkscape:zoom="0.2489684"
     inkscape:cx="1206.9805"
     inkscape:cy="-929.83687"
     inkscape:window-width="1440"
     inkscape:window-height="900"
     inkscape:window-x="0"
     inkscape:window-y="0"
     inkscape:window-maximized="0"
     inkscape:current-layer="layer1" /><defs
     id="defs2" /><g
     inkscape:label="Layer 1"
     inkscape:groupmode="layer"
     id="layer1"
     transform="translate(45.576369,31.54749)"><path
       id="path960"
       style="fill:#000000;stroke-width:0.122549"
       d="m -31.667049,-0.78769016 c -0.0417,-0.0674 -0.37254,-0.122549 -0.7353,-0.122549 -0.36275,0 -0.69363,-0.05515 -0.73529,-0.12254904 -0.0417,-0.0674 -0.26225,-0.122549 -0.4902,-0.122549 -0.22795,0 -0.44854,-0.05515 -0.49019,-0.122549 -0.0417,-0.0674 -0.26225,-0.122549 -0.4902,-0.122549 -0.22795,0 -0.44854,-0.05515 -0.4902,-0.122549 -0.0417,-0.0674 -0.16862,-0.122549 -0.28214,-0.122549 -0.26932,0 -2.90519,-1.311639 -3.09466,-1.539943 -0.0802,-0.09666 -0.2115,-0.175743 -0.29174,-0.175743 -0.0802,0 -0.3044,-0.165441 -0.49812,-0.367647 -0.19373,-0.202206 -0.41194,-0.367647 -0.48491,-0.367647 -0.16991,0 -2.39499,-2.229473 -2.39499,-2.399718 0,-0.07037 -0.16545,-0.286458 -0.36765,-0.480184 -0.20221,-0.193725 -0.36765,-0.417879 -0.36765,-0.498119 0,-0.08024 -0.0791,-0.211523 -0.17574,-0.291742 -0.22831,-0.189476 -1.53994,-2.8253388 -1.53994,-3.0946608 0,-0.113523 -0.0551,-0.240488 -0.12255,-0.282145 -0.0674,-0.04166 -0.12255,-0.207098 -0.12255,-0.367647 0,-0.160549 -0.0551,-0.32599 -0.12255,-0.367647 -0.0674,-0.04166 -0.12255,-0.317392 -0.12255,-0.612743 0,-0.29536 -0.0551,-0.57109 -0.12255,-0.61275 -0.0674,-0.0417 -0.12255,-0.37254 -0.12255,-0.73529 0,-0.36276 -0.0551,-0.69364 -0.12255,-0.7353 -0.0706,-0.0436 -0.12255,-0.6933 -0.12255,-1.53186 0,-0.83855 0.052,-1.48824 0.12255,-1.53186 0.0674,-0.0417 0.12255,-0.37254 0.12255,-0.7353 0,-0.36275 0.0551,-0.69363 0.12255,-0.73529 0.0674,-0.0417 0.12255,-0.31739 0.12255,-0.61274 0,-0.29536 0.0551,-0.57109 0.12255,-0.61275 0.0674,-0.0417 0.12255,-0.2071 0.12255,-0.36765 0,-0.16055 0.0551,-0.32599 0.12255,-0.36764 0.0674,-0.0417 0.12255,-0.16862 0.12255,-0.28215 0,-0.26932 1.31163,-2.90518 1.53994,-3.09466 0.0967,-0.0802 0.17574,-0.2115 0.17574,-0.29174 0,-0.0802 0.16544,-0.30439 0.36765,-0.49812 0.2022,-0.19373 0.36765,-0.41193 0.36765,-0.48491 0,-0.16991 2.22947,-2.39499 2.39971,-2.39499 0.0704,0 0.28646,-0.16544 0.48019,-0.36765 0.19372,-0.2022 0.41788,-0.36765 0.49812,-0.36765 0.0802,0 0.21152,-0.0791 0.29174,-0.17574 0.18947,-0.2283 2.82534,-1.53994 3.09466,-1.53994 0.11352,0 0.24049,-0.0551 0.28214,-0.12255 0.0417,-0.0674 0.2071,-0.12255 0.36765,-0.12255 0.16055,0 0.32599,-0.0551 0.36765,-0.12255 0.0417,-0.0674 0.31739,-0.12255 0.61274,-0.12255 0.29536,0 0.57109,-0.0551 0.61275,-0.12255 0.0417,-0.0674 0.37254,-0.12255 0.73529,-0.12255 0.36276,0 0.69364,-0.0551 0.7353,-0.12255 0.0436,-0.0706 0.6933,-0.12254 1.53186,-0.12254 0.83856,0 1.48825,0.052 1.53186,0.12254 0.0417,0.0674 0.37254,0.12255 0.7353,0.12255 0.36275,0 0.69363,0.0551 0.73529,0.12255 0.0417,0.0674 0.31739,0.12255 0.61275,0.12255 0.29535,0 0.57108,0.0551 0.61274,0.12255 0.0417,0.0674 0.2071,0.12255 0.36765,0.12255 0.16055,0 0.32599,0.0551 0.36765,0.12255 0.0417,0.0674 0.16862,0.12255 0.28214,0.12255 0.26932,0 2.90518,1.31164 3.09466,1.53994 0.0802,0.0967 0.2115,0.17574 0.29175,0.17574 0.0802,0 0.30439,0.16545 0.49811,0.36765 0.19373,0.20221 0.41194,0.36765 0.4849,0.36765 0.16992,0 2.395,2.22947 2.395,2.39972 0,0.0704 0.16545,0.28645 0.36765,0.48018 0.20221,0.19373 0.36765,0.41788 0.36765,0.49812 0,0.0802 0.0791,0.21152 0.17575,0.29174 0.22829,0.18948 1.53993,2.82534 1.53993,3.09466 0,0.11353 0.0551,0.24049 0.12255,0.28215 0.0674,0.0417 0.12255,0.20709 0.12255,0.36764 0,0.16055 0.0551,0.32599 0.12255,0.36765 0.0674,0.0417 0.12255,0.31739 0.12255,0.61275 0,0.29535 0.0551,0.57108 0.12255,0.61274 0.0674,0.0417 0.12255,0.37254 0.12255,0.73529 0,0.36276 0.0551,0.69364 0.12255,0.7353 0.0706,0.0436 0.12255,0.69331 0.12255,1.53186 0,0.83856 -0.052,1.48825 -0.12255,1.53186 -0.0674,0.0417 -0.12255,0.37254 -0.12255,0.7353 0,0.36275 -0.0551,0.69364 -0.12255,0.73529 -0.0674,0.0417 -0.12255,0.26225 -0.12255,0.4902 0,0.22795 -0.0551,0.448538 -0.12255,0.490195 -0.0674,0.04166 -0.12255,0.262245 -0.12255,0.490196 0,0.227951 -0.0551,0.44854 -0.12255,0.490196 -0.0674,0.04166 -0.12255,0.168622 -0.12255,0.282145 0,0.269322 -1.31164,2.9051848 -1.53993,3.0946608 -0.0967,0.08022 -0.17575,0.211503 -0.17575,0.291742 0,0.08024 -0.16544,0.304394 -0.36765,0.498119 -0.2022,0.193726 -0.36765,0.411934 -0.36765,0.484907 0,0.16991 -2.22947,2.394995 -2.39971,2.394995 -0.0704,0 -0.28646,0.165441 -0.48019,0.367647 -0.19372,0.202206 -0.41788,0.367647 -0.49811,0.367647 -0.0802,0 -0.21153,0.07908 -0.29175,0.175743 -0.18948,0.228304 -2.82534,1.539943 -3.09466,1.539943 -0.11352,0 -0.24049,0.05515 -0.28214,0.122549 -0.0417,0.0674 -0.26225,0.122549 -0.4902,0.122549 -0.22795,0 -0.44854,0.05515 -0.4902,0.122549 -0.0417,0.0674 -0.26224,0.122549 -0.49019,0.122549 -0.22795,0 -0.44854,0.05515 -0.4902,0.122549 -0.0417,0.0674 -0.37254,0.12254904 -0.73529,0.12254904 -0.36276,0 -0.69364,0.05515 -0.7353,0.122549 -0.0436,0.07057 -0.6933,0.122549 -1.53186,0.122549 -0.83856,0 -1.48825,-0.05197 -1.53186,-0.122549 z m 6.80777,-6.64828404 c 0.16362,-0.219056 0.38764,-0.563725 0.49783,-0.765931 0.11019,-0.202206 0.31634,-0.560662 0.45813,-0.796569 0.14178,-0.235907 0.4546,-0.787377 0.69514,-1.2254898 0.24055,-0.438113 0.62279,-1.099877 0.84945,-1.470588 0.22665,-0.370711 0.58907,-1.004907 0.80538,-1.409317 0.2163,-0.40441 0.46327,-0.81801 0.54882,-0.91911 0.0856,-0.10111 0.32761,-0.51471 0.53791,-0.91912 0.21029,-0.40441 0.45058,-0.8318 0.53397,-0.94976 0.11789,-0.16678 0.1191,-0.26214 0.005,-0.42892 -0.0804,-0.11795 -0.32103,-0.54534 -0.53473,-0.94975 -0.21371,-0.40442 -0.45845,-0.81802 -0.54389,-0.91912 -0.0854,-0.1011 -0.29758,-0.46778 -0.47147,-0.81483 -0.17387,-0.34705 -0.46968,-0.87094 -0.65735,-1.16421 -0.57221,-0.89419 -0.63163,-0.9961 -1.06533,-1.82703 -0.23069,-0.442 -0.50619,-0.87564 -0.61224,-0.96365 -0.10605,-0.088 -0.16494,-0.2051 -0.13089,-0.26021 0.0341,-0.0551 0.003,-0.13694 -0.0702,-0.18184 -0.0727,-0.0449 -0.18663,-0.22505 -0.25327,-0.40033 -0.0666,-0.17527 -0.27003,-0.55393 -0.452,-0.84146 l -0.33083,-0.52279 -5.12027,-0.004 c -4.7658,-0.004 -5.12597,0.0104 -5.20255,0.20999 -0.0453,0.11795 -0.23653,0.44305 -0.42507,0.72243 -0.18854,0.27938 -0.3428,0.55698 -0.3428,0.61688 0,0.0599 -0.1963,0.41035 -0.43623,0.77879 -0.23992,0.36844 -0.51779,0.86097 -0.61749,1.09452 -0.0997,0.23354 -0.2254,0.45413 -0.27932,0.49019 -0.0998,0.0667 -0.49723,0.74227 -1.32869,2.25834 -0.2548,0.46461 -0.52012,0.93336 -0.5896,1.04167 -0.24249,0.37804 -0.55254,0.99151 -0.53822,1.06495 0.008,0.0407 -0.13025,0.22503 -0.30709,0.40961 -0.31532,0.32913 -0.31725,0.34131 -0.10006,0.63193 0.1218,0.16298 0.37943,0.59964 0.5725,0.97035 0.19308,0.37071 0.41955,0.75674 0.50327,0.85784 0.0837,0.1011 0.32648,0.51471 0.53946,0.91912 0.21297,0.40441 0.57262,1.0386 0.79921,1.409311 0.2266,0.370711 0.58877,1.004902 0.80482,1.409314 0.21606,0.4044118 0.50641,0.8593748 0.64522,1.0110288 0.13882,0.151655 0.2163,0.275735 0.17219,0.275735 -0.0865,0 0.4634,1.045969 0.70876,1.34804 0.0821,0.101103 0.18353,0.280331 0.22537,0.398284 0.0708,0.199564 0.42799,0.214461 5.14264,0.214461 h 5.06658 l 0.29749,-0.398285 z m -6.73013,-3.8490088 c -0.93853,-0.20294 -2.4692,-1.483066 -3.0515,-2.552006 -0.31621,-0.58049 -0.33497,-0.70412 -0.33497,-2.20805 0,-1.4843 0.0227,-1.63919 0.33184,-2.26716 0.3775,-0.76679 1.48105,-1.8851 2.30297,-2.33377 0.5085,-0.27758 0.68036,-0.30103 2.20588,-0.30103 1.55788,0 1.69016,0.0191 2.26716,0.32708 0.73918,0.39457 1.74304,1.40965 2.22162,2.24644 0.33798,0.59098 0.35043,0.67153 0.35043,2.26716 0,1.59563 -0.0125,1.67618 -0.35043,2.26716 -0.44542,0.77881 -1.48149,1.853959 -2.0378,2.114658 -0.23591,0.110551 -0.46485,0.253489 -0.50876,0.317641 -0.0855,0.124949 -2.91302,0.226408 -3.39644,0.121877 z" /></g></svg>
