<svg xmlns="http://www.w3.org/2000/svg" xml:space="preserve" width="250.28" height="249.869" viewBox="0 0 30.672 30.621"><path d="M179.05-203.056c-1.337-.265-3.124-.874-4.285-1.462-6.672-3.378-9.913-10.965-7.766-18.175a15.1 15.1 0 0 1 3.71-6.252c2.966-3.017 6.696-4.579 10.976-4.599 4.083-.018 7.828 1.5 10.725 4.349 2.338 2.299 3.847 5.182 4.462 8.528.203 1.102.183 3.765-.038 5.02-1.124 6.405-6.136 11.438-12.515 12.568-1.116.197-4.316.212-5.27.023m3.676-5.366c1.033-.148 2.843-.994 3.515-1.642 1.274-1.228 2.093-2.736 2.31-4.255.15-1.037-.016-2.694-.37-3.707-.119-.342-.315-.898-.435-1.235-.777-2.185-3.416-6.088-5.573-8.245l-.497-.498-.528.572c-2.93 3.18-5.044 6.536-5.918 9.396-.288.945-.337 1.322-.342 2.635-.006 1.846.222 2.62 1.191 4.044 1.257 1.847 3.176 2.912 5.483 3.042.169.009.692-.039 1.164-.107m-2.177-2.088c-1.13-.266-1.988-.919-2.615-1.988-.762-1.3-.705-2.975.146-4.282.457-.701.663-.612.663.288 0 .602.073.88.378 1.44.485.888.839 1.256 1.618 1.68 1.282.698 3.215.496 4.242-.443.51-.465.66-.313.435.436-.45 1.494-1.413 2.417-2.937 2.814-.795.207-1.232.22-1.93.055" style="fill:#000;stroke-width:.122549" transform="translate(-166.341 233.544)"/></svg>