<?xml version="1.0" encoding="UTF-8" standalone="no"?>
<!-- Created with Inkscape (http://www.inkscape.org/) -->

<svg
   width="2.6070795in"
   height="2.6028008in"
   viewBox="0 0 30.671524 30.621185"
   version="1.1"
   id="svg5"
   inkscape:version="1.2 (dc2aeda, 2022-05-15)"
   xml:space="preserve"
   sodipodi:docname="poke-type-icons.svg"
   xmlns:inkscape="http://www.inkscape.org/namespaces/inkscape"
   xmlns:sodipodi="http://sodipodi.sourceforge.net/DTD/sodipodi-0.dtd"
   xmlns="http://www.w3.org/2000/svg"
   xmlns:svg="http://www.w3.org/2000/svg"><sodipodi:namedview
     id="namedview7"
     pagecolor="#505050"
     bordercolor="#eeeeee"
     borderopacity="1"
     inkscape:showpageshadow="false"
     inkscape:pageopacity="0"
     inkscape:pagecheckerboard="false"
     inkscape:deskcolor="#505050"
     inkscape:document-units="in"
     showgrid="true"
     inkscape:lockguides="false"
     inkscape:zoom="0.2489684"
     inkscape:cx="1206.9805"
     inkscape:cy="-929.83687"
     inkscape:window-width="1440"
     inkscape:window-height="900"
     inkscape:window-x="0"
     inkscape:window-y="0"
     inkscape:window-maximized="0"
     inkscape:current-layer="layer1" /><defs
     id="defs2" /><g
     inkscape:label="Layer 1"
     inkscape:groupmode="layer"
     id="layer1"
     transform="translate(-166.34106,233.54367)"><path
       id="path946"
       style="fill:#000000;stroke-width:0.122549"
       d="m 179.04983,-203.05612 c -1.33724,-0.26454 -3.12431,-0.87423 -4.28491,-1.46189 -6.67177,-3.37817 -9.91331,-10.96489 -7.76547,-18.17482 0.69289,-2.32591 1.97691,-4.49 3.7095,-6.25197 2.96637,-3.0167 6.69556,-4.57919 10.97568,-4.5987 4.08373,-0.0186 7.82804,1.49937 10.72502,4.34803 2.33809,2.29907 3.84696,5.1828 4.46226,8.5282 0.20282,1.10267 0.1829,3.7649 -0.0376,5.02101 -1.12402,6.40399 -6.13632,11.43715 -12.5149,12.56694 -1.11643,0.19774 -4.31606,0.21183 -5.26961,0.0232 z m 3.67647,-5.36552 c 1.03314,-0.1487 2.84237,-0.99407 3.515,-1.64239 1.27396,-1.22792 2.09269,-2.73573 2.31023,-4.25462 0.14864,-1.03779 -0.0167,-2.69409 -0.37006,-3.70731 -0.11945,-0.34251 -0.31533,-0.89848 -0.43527,-1.23549 -0.77747,-2.1845 -3.41572,-6.08757 -5.57307,-8.24493 l -0.49736,-0.49735 -0.52729,0.57212 c -2.93024,3.17935 -5.04452,6.53607 -5.91801,9.39565 -0.28864,0.94497 -0.33765,1.32234 -0.3421,2.6348 -0.006,1.84572 0.22152,2.61941 1.19065,4.04412 1.25674,1.84749 3.17618,2.91229 5.48307,3.04168 0.1685,0.009 0.6924,-0.0384 1.16421,-0.10628 z m -2.17714,-2.08835 c -1.12995,-0.26621 -1.98805,-0.91857 -2.61471,-1.98779 -0.76229,-1.30067 -0.70538,-2.97557 0.14553,-4.28206 0.45697,-0.70164 0.66348,-0.61219 0.66348,0.28741 0,0.60285 0.0729,0.88065 0.37779,1.43995 0.48445,0.88862 0.83841,1.2563 1.61786,1.68053 1.28154,0.6975 3.21446,0.49568 4.24211,-0.44293 0.50889,-0.4648 0.66041,-0.31309 0.43507,0.43564 -0.44974,1.49439 -1.41283,2.41712 -2.93723,2.81418 -0.79479,0.20701 -1.23202,0.21949 -1.9299,0.0551 z" /></g></svg>
